<mxfile host="65bd71144e">
    <diagram id="wVhuZO5ScuzKjDBSYTUF" name="Page-1">
        <mxGraphModel dx="3664" dy="3027" grid="1" gridSize="10" guides="1" tooltips="1" connect="1" arrows="1" fold="1" page="1" pageScale="1" pageWidth="827" pageHeight="1169" math="0" shadow="0">
            <root>
                <mxCell id="0"/>
                <mxCell id="1" parent="0"/>
                <mxCell id="5" value="Nuance" style="ellipse;whiteSpace=wrap;html=1;" parent="1" vertex="1">
                    <mxGeometry x="90" y="-730" width="170" height="80" as="geometry"/>
                </mxCell>
                <mxCell id="6" value="~んです" style="whiteSpace=wrap;html=1;" parent="1" vertex="1">
                    <mxGeometry x="110" y="-620" width="120" height="50" as="geometry"/>
                </mxCell>
                <mxCell id="14" value="Enumération" style="ellipse;whiteSpace=wrap;html=1;" parent="1" vertex="1">
                    <mxGeometry x="-220" y="-510" width="160" height="80" as="geometry"/>
                </mxCell>
                <mxCell id="18" value="し、し、présent。" style="whiteSpace=wrap;html=1;" parent="1" vertex="1">
                    <mxGeometry x="130" y="-850" width="120" height="60" as="geometry"/>
                </mxCell>
                <mxCell id="19" value="&lt;font style=&quot;font-size: 24px;&quot;&gt;？&lt;/font&gt;" style="ellipse;whiteSpace=wrap;html=1;" parent="1" vertex="1">
                    <mxGeometry x="-60" y="-320" width="160" height="50" as="geometry"/>
                </mxCell>
                <mxCell id="20" value="普通体&lt;span style=&quot;border-color: rgb(0, 0, 0); background-color: initial;&quot;&gt;&amp;nbsp;+ と + 思う&lt;/span&gt;&lt;br style=&quot;border-color: rgb(0, 0, 0);&quot;&gt;&lt;div style=&quot;border-color: rgb(0, 0, 0);&quot;&gt;普通体 + と + 言う&lt;/div&gt;&lt;div style=&quot;border-color: rgb(0, 0, 0);&quot;&gt;/!\ Nom/な-adj + だ&lt;/div&gt;" style="whiteSpace=wrap;html=1;" parent="1" vertex="1">
                    <mxGeometry x="110" y="-540" width="120" height="60" as="geometry"/>
                </mxCell>
                <mxCell id="44" value="Donc" style="whiteSpace=wrap;html=1;" parent="1" vertex="1">
                    <mxGeometry x="-560" y="-100" width="120" height="60" as="geometry"/>
                </mxCell>
                <mxCell id="48" value="&lt;font style=&quot;font-size: 12px;&quot;&gt;あれは&lt;b&gt;だれの&lt;/b&gt;ですか。&lt;/font&gt;" style="whiteSpace=wrap;html=1;fontSize=24;" parent="1" vertex="1">
                    <mxGeometry x="-100" y="-220" width="140" height="60" as="geometry"/>
                </mxCell>
                <mxCell id="52" value="" style="edgeStyle=none;html=1;fontSize=12;entryX=0;entryY=0.5;entryDx=0;entryDy=0;" parent="1" source="49" target="50" edge="1">
                    <mxGeometry relative="1" as="geometry">
                        <mxPoint x="-750" y="-170" as="targetPoint"/>
                    </mxGeometry>
                </mxCell>
                <mxCell id="49" value="それは&lt;b&gt;何の&lt;/b&gt;雑誌ですか。" style="whiteSpace=wrap;html=1;fontSize=12;" parent="1" vertex="1">
                    <mxGeometry x="-100" y="-150" width="140" height="60" as="geometry"/>
                </mxCell>
                <mxCell id="50" value="コンピューターの雑誌です。" style="whiteSpace=wrap;html=1;fontSize=12;" parent="1" vertex="1">
                    <mxGeometry x="155" y="-140" width="160" height="60" as="geometry"/>
                </mxCell>
                <mxCell id="53" value="Avant le NOM" style="ellipse;whiteSpace=wrap;html=1;" parent="1" vertex="1">
                    <mxGeometry x="-2430" y="-2305" width="160" height="70" as="geometry"/>
                </mxCell>
                <mxCell id="54" value="NOMの~" style="whiteSpace=wrap;html=1;" parent="1" vertex="1">
                    <mxGeometry x="-2410" y="-2200" width="100" height="50" as="geometry"/>
                </mxCell>
                <mxCell id="55" value="V-ふつたい ~" style="whiteSpace=wrap;html=1;" parent="1" vertex="1">
                    <mxGeometry x="-2410" y="-2120" width="100" height="50" as="geometry"/>
                </mxCell>
                <mxCell id="56" value="Après le NOM" style="ellipse;whiteSpace=wrap;html=1;" parent="1" vertex="1">
                    <mxGeometry x="-2180" y="-2315" width="150" height="80" as="geometry"/>
                </mxCell>
                <mxCell id="57" value="NOMの代わりに" style="whiteSpace=wrap;html=1;" parent="1" vertex="1">
                    <mxGeometry x="-2165" y="-2200" width="120" height="45" as="geometry"/>
                </mxCell>
                <mxCell id="81" value="の おかげで" style="whiteSpace=wrap;html=1;" parent="1" vertex="1">
                    <mxGeometry x="-2165" y="-2120" width="125" height="60" as="geometry"/>
                </mxCell>
                <mxCell id="82" value="Fin de phrase" style="ellipse;whiteSpace=wrap;html=1;" parent="1" vertex="1">
                    <mxGeometry x="414" y="-740" width="180" height="80" as="geometry"/>
                </mxCell>
                <mxCell id="83" value="ふつたい + んでしょう?&lt;br&gt;&lt;br&gt;NOMだん&amp;nbsp;&lt;br&gt;V-るん&lt;br&gt;V-たん&lt;br&gt;な-adj なん&lt;br&gt;い-adj ん" style="whiteSpace=wrap;html=1;" parent="1" vertex="1">
                    <mxGeometry x="414" y="-610" width="160" height="130" as="geometry"/>
                </mxCell>
                <mxCell id="85" value="" style="edgeStyle=none;html=1;" parent="1" source="84" target="83" edge="1">
                    <mxGeometry relative="1" as="geometry"/>
                </mxCell>
                <mxCell id="84" value="でしょう?" style="whiteSpace=wrap;html=1;" parent="1" vertex="1">
                    <mxGeometry x="620" y="-540" width="120" height="35" as="geometry"/>
                </mxCell>
                <mxCell id="91" value="STRUCTURE SIMPLE" style="ellipse;whiteSpace=wrap;html=1;" parent="1" vertex="1">
                    <mxGeometry x="-781" y="-320" width="250" height="80" as="geometry"/>
                </mxCell>
                <mxCell id="92" value="~前に、~おきます。" style="whiteSpace=wrap;html=1;" parent="1" vertex="1">
                    <mxGeometry x="-710" y="-190" width="120" height="60" as="geometry"/>
                </mxCell>
                <mxCell id="93" value="Etat/Situation :&amp;nbsp; CODが が-V-て いる&lt;br&gt;Conséquence : CODが を-V-て ある&lt;br&gt;Préparation (passé-passé, futur-futur) : CODは を-V-て ある&lt;br&gt;Préparation (passé-futur) : CODを を-V-て おく&lt;br&gt;Laisser : CODを(は) を-V-て おく&lt;br&gt;CODを(は)&amp;nbsp;そままにして おく" style="whiteSpace=wrap;html=1;" parent="1" vertex="1">
                    <mxGeometry x="280" y="-940" width="350" height="170" as="geometry"/>
                </mxCell>
                <mxCell id="137" value="J'espère que" style="swimlane;fontStyle=1;align=center;verticalAlign=top;childLayout=stackLayout;horizontal=1;startSize=26;horizontalStack=0;resizeParent=1;resizeLast=0;collapsible=1;marginBottom=0;rounded=0;shadow=0;strokeWidth=1;" parent="1" vertex="1">
                    <mxGeometry x="-1760" y="-2110" width="160" height="78" as="geometry">
                        <mxRectangle x="-340" y="200" width="160" height="26" as="alternateBounds"/>
                    </mxGeometry>
                </mxCell>
                <mxCell id="138" value="、うれしいです。" style="text;align=center;verticalAlign=top;spacingLeft=4;spacingRight=4;overflow=hidden;rotatable=0;points=[[0,0.5],[1,0.5]];portConstraint=eastwest;rounded=0;shadow=0;html=0;fontColor=#FFFFFF;" parent="137" vertex="1">
                    <mxGeometry y="26" width="160" height="26" as="geometry"/>
                </mxCell>
                <mxCell id="139" value="、いいです。" style="text;align=center;verticalAlign=top;spacingLeft=4;spacingRight=4;overflow=hidden;rotatable=0;points=[[0,0.5],[1,0.5]];portConstraint=eastwest;rounded=0;shadow=0;html=0;fontColor=#FFFFFF;" parent="137" vertex="1">
                    <mxGeometry y="52" width="160" height="26" as="geometry"/>
                </mxCell>
                <mxCell id="880" value="grâce à" style="shape=table;startSize=30;container=1;collapsible=0;childLayout=tableLayout;fixedRows=1;rowLines=0;fontStyle=1;fillColor=#f0a30a;fontColor=#000000;strokeColor=#BD7000;swimlaneFillColor=default;rounded=1;swimlaneLine=1;shadow=0;" parent="1" vertex="1">
                    <mxGeometry x="-160" y="-920" width="220" height="125" as="geometry"/>
                </mxCell>
                <mxCell id="881" value="" style="shape=tableRow;horizontal=0;startSize=0;swimlaneHead=0;swimlaneBody=0;top=0;left=0;bottom=0;right=0;collapsible=0;dropTarget=0;fillColor=none;points=[[0,0.5],[1,0.5]];portConstraint=eastwest;" parent="880" vertex="1">
                    <mxGeometry y="30" width="220" height="55" as="geometry"/>
                </mxCell>
                <mxCell id="882" value="ふつたい&lt;br&gt;NOMの" style="shape=partialRectangle;html=1;whiteSpace=wrap;connectable=0;fillColor=none;top=0;left=0;bottom=0;right=0;overflow=hidden;pointerEvents=1;" parent="881" vertex="1">
                    <mxGeometry width="90" height="55" as="geometry">
                        <mxRectangle width="90" height="55" as="alternateBounds"/>
                    </mxGeometry>
                </mxCell>
                <mxCell id="883" value="おかげで" style="shape=partialRectangle;html=1;whiteSpace=wrap;connectable=0;top=0;left=0;bottom=0;right=0;align=left;spacingLeft=6;overflow=hidden;" parent="881" vertex="1">
                    <mxGeometry x="90" width="130" height="55" as="geometry">
                        <mxRectangle width="130" height="55" as="alternateBounds"/>
                    </mxGeometry>
                </mxCell>
                <mxCell id="949" value="Conditionnel" style="shape=table;startSize=30;container=1;collapsible=0;childLayout=tableLayout;rounded=1;shadow=0;swimlaneFillColor=default;fillStyle=auto;swimlaneLine=1;gradientDirection=south;labelBorderColor=none;fontStyle=1;" parent="1" vertex="1">
                    <mxGeometry x="-1940" y="-2300" width="160" height="220" as="geometry"/>
                </mxCell>
                <mxCell id="950" value="" style="shape=tableRow;horizontal=0;startSize=0;swimlaneHead=0;swimlaneBody=0;top=0;left=0;bottom=0;right=0;collapsible=0;dropTarget=0;fillColor=none;points=[[0,0.5],[1,0.5]];portConstraint=eastwest;rounded=0;shadow=0;sketch=0;strokeColor=default;" parent="949" vertex="1">
                    <mxGeometry y="30" width="160" height="48" as="geometry"/>
                </mxCell>
                <mxCell id="951" value="&lt;div style=&quot;&quot;&gt;&lt;b style=&quot;background-color: initial;&quot;&gt;NOM&lt;font color=&quot;#fcfcfc&quot;&gt;だった&lt;span style=&quot;white-space: pre;&quot;&gt;&#9;&lt;/span&gt;&lt;span style=&quot;white-space: pre;&quot;&gt;&#9;&lt;span style=&quot;white-space: pre;&quot;&gt;&#9;&lt;/span&gt;&lt;/span&gt;&lt;/font&gt;&lt;font color=&quot;#000000&quot;&gt;ら&lt;/font&gt;&lt;/b&gt;&lt;/div&gt;&lt;b&gt;NOM&lt;font style=&quot;&quot; color=&quot;#fcfcfc&quot;&gt;じゃなかった&lt;span style=&quot;white-space: pre;&quot;&gt;&#9;&lt;span style=&quot;white-space: pre;&quot;&gt;&#9;&lt;/span&gt;&lt;/span&gt;&lt;/font&gt;&lt;font style=&quot;&quot; color=&quot;#050505&quot;&gt;ら&lt;/font&gt;&lt;/b&gt;" style="shape=partialRectangle;html=1;whiteSpace=wrap;connectable=0;overflow=hidden;fillColor=#1ba1e2;top=0;left=0;bottom=0;right=0;pointerEvents=1;rounded=0;shadow=0;sketch=0;strokeColor=#006EAF;fontColor=#ffffff;align=right;" parent="950" vertex="1">
                    <mxGeometry width="160" height="48" as="geometry">
                        <mxRectangle width="160" height="48" as="alternateBounds"/>
                    </mxGeometry>
                </mxCell>
                <mxCell id="952" value="" style="shape=tableRow;horizontal=0;startSize=0;swimlaneHead=0;swimlaneBody=0;top=0;left=0;bottom=0;right=0;collapsible=0;dropTarget=0;fillColor=none;points=[[0,0.5],[1,0.5]];portConstraint=eastwest;rounded=0;shadow=0;sketch=0;strokeColor=default;" parent="949" vertex="1">
                    <mxGeometry y="78" width="160" height="47" as="geometry"/>
                </mxCell>
                <mxCell id="953" value="&lt;div style=&quot;&quot;&gt;&lt;span style=&quot;background-color: initial;&quot;&gt;&lt;b&gt;VERBE-た&lt;span style=&quot;white-space: pre;&quot;&gt;&#9;&lt;span style=&quot;white-space: pre;&quot;&gt;&#9;&lt;/span&gt;&lt;/span&gt;&lt;span style=&quot;white-space: pre;&quot;&gt;&#9;&lt;/span&gt;&lt;/b&gt;&lt;/span&gt;&lt;b style=&quot;background-color: initial;&quot;&gt;&lt;font color=&quot;#050505&quot;&gt;ら&lt;/font&gt;&lt;/b&gt;&lt;/div&gt;&lt;b&gt;&lt;div style=&quot;&quot;&gt;&lt;b style=&quot;background-color: initial;&quot;&gt;VERBE-なかった&lt;span style=&quot;white-space: pre;&quot;&gt;&#9;&lt;span style=&quot;white-space: pre;&quot;&gt;&#9;&lt;/span&gt;&lt;/span&gt;&lt;font color=&quot;#050505&quot;&gt;ら&lt;/font&gt;&lt;/b&gt;&lt;/div&gt;&lt;/b&gt;" style="shape=partialRectangle;html=1;whiteSpace=wrap;connectable=0;overflow=hidden;fillColor=#6d8764;top=0;left=0;bottom=0;right=0;pointerEvents=1;rounded=0;shadow=0;sketch=0;strokeColor=#3A5431;fontColor=#ffffff;align=right;" parent="952" vertex="1">
                    <mxGeometry width="160" height="47" as="geometry">
                        <mxRectangle width="160" height="47" as="alternateBounds"/>
                    </mxGeometry>
                </mxCell>
                <mxCell id="954" value="" style="shape=tableRow;horizontal=0;startSize=0;swimlaneHead=0;swimlaneBody=0;top=0;left=0;bottom=0;right=0;collapsible=0;dropTarget=0;fillColor=none;points=[[0,0.5],[1,0.5]];portConstraint=eastwest;rounded=0;shadow=0;sketch=0;strokeColor=default;" parent="949" vertex="1">
                    <mxGeometry y="125" width="160" height="48" as="geometry"/>
                </mxCell>
                <mxCell id="955" value="&lt;b&gt;&lt;font color=&quot;#fcfcfc&quot;&gt;な-ADJだった&lt;span style=&quot;white-space: pre;&quot;&gt;&#9;&lt;/span&gt;&lt;span style=&quot;white-space: pre;&quot;&gt;&#9;&lt;span style=&quot;white-space: pre;&quot;&gt;&#9;&lt;/span&gt;&lt;/span&gt;&lt;/font&gt;ら&lt;br style=&quot;border-color: rgb(0, 0, 0); padding: 0px; margin: 0px;&quot;&gt;&lt;font color=&quot;#fcfcfc&quot;&gt;な-ADJじゃなかった&lt;span style=&quot;white-space: pre;&quot;&gt;&#9;&lt;/span&gt;&lt;/font&gt;ら&lt;/b&gt;" style="shape=partialRectangle;html=1;whiteSpace=wrap;connectable=0;overflow=hidden;fillColor=#f0a30a;top=0;left=0;bottom=0;right=0;pointerEvents=1;rounded=0;shadow=0;sketch=0;strokeColor=#BD7000;fontColor=#000000;align=right;" parent="954" vertex="1">
                    <mxGeometry width="160" height="48" as="geometry">
                        <mxRectangle width="160" height="48" as="alternateBounds"/>
                    </mxGeometry>
                </mxCell>
                <mxCell id="956" value="" style="shape=tableRow;horizontal=0;startSize=0;swimlaneHead=0;swimlaneBody=0;top=0;left=0;bottom=0;right=0;collapsible=0;dropTarget=0;fillColor=none;points=[[0,0.5],[1,0.5]];portConstraint=eastwest;rounded=0;shadow=0;sketch=0;strokeColor=default;" parent="949" vertex="1">
                    <mxGeometry y="173" width="160" height="47" as="geometry"/>
                </mxCell>
                <mxCell id="957" value="&lt;b&gt;&lt;font color=&quot;#fcfcfc&quot;&gt;い-ADJかった&lt;span style=&quot;white-space: pre;&quot;&gt;&#9;&lt;span style=&quot;white-space: pre;&quot;&gt;&#9;&lt;/span&gt;&lt;span style=&quot;white-space: pre;&quot;&gt;&#9;&lt;/span&gt;&lt;/span&gt;&lt;/font&gt;ら&lt;br style=&quot;padding: 0px; margin: 0px;&quot;&gt;&lt;font color=&quot;#fcfcfc&quot;&gt;い-ADJくなかった&lt;span style=&quot;white-space: pre;&quot;&gt;&#9;&lt;span style=&quot;white-space: pre;&quot;&gt;&#9;&lt;/span&gt;&lt;/span&gt;&lt;/font&gt;ら&lt;/b&gt;" style="shape=partialRectangle;html=1;whiteSpace=wrap;connectable=0;overflow=hidden;fillColor=#fa6800;top=0;left=0;bottom=0;right=0;pointerEvents=1;rounded=0;shadow=0;sketch=0;strokeColor=#C73500;fontColor=#000000;align=right;" parent="956" vertex="1">
                    <mxGeometry width="160" height="47" as="geometry">
                        <mxRectangle width="160" height="47" as="alternateBounds"/>
                    </mxGeometry>
                </mxCell>
                <mxCell id="958" value="もし" style="ellipse;whiteSpace=wrap;html=1;" parent="1" vertex="1">
                    <mxGeometry x="-1980" y="-2200" width="50" height="50" as="geometry"/>
                </mxCell>
                <mxCell id="959" value="Conditionnel 100 ％" style="shape=table;startSize=30;container=1;collapsible=0;childLayout=tableLayout;rounded=1;shadow=0;swimlaneFillColor=default;fillStyle=auto;swimlaneLine=1;gradientDirection=south;labelBorderColor=none;fontStyle=1;" parent="1" vertex="1">
                    <mxGeometry x="-1940" y="-2060" width="160" height="220" as="geometry"/>
                </mxCell>
                <mxCell id="960" value="" style="shape=tableRow;horizontal=0;startSize=0;swimlaneHead=0;swimlaneBody=0;top=0;left=0;bottom=0;right=0;collapsible=0;dropTarget=0;fillColor=none;points=[[0,0.5],[1,0.5]];portConstraint=eastwest;rounded=0;shadow=0;sketch=0;strokeColor=default;" parent="959" vertex="1">
                    <mxGeometry y="30" width="160" height="48" as="geometry"/>
                </mxCell>
                <mxCell id="961" value="&lt;div style=&quot;&quot;&gt;&lt;b style=&quot;background-color: initial;&quot;&gt;NOM&lt;font color=&quot;#fcfcfc&quot;&gt;だ&lt;span style=&quot;white-space: pre;&quot;&gt;&#9;&lt;span style=&quot;white-space: pre;&quot;&gt;&#9;&lt;/span&gt;&lt;/span&gt;&lt;span style=&quot;white-space: pre;&quot;&gt;&#9;&lt;span style=&quot;white-space: pre;&quot;&gt;&#9;&lt;/span&gt;&lt;/span&gt;&lt;/font&gt;&lt;font color=&quot;#000000&quot;&gt;と&lt;/font&gt;&lt;/b&gt;&lt;/div&gt;&lt;b&gt;NOM&lt;font style=&quot;&quot; color=&quot;#fcfcfc&quot;&gt;じゃない&lt;span style=&quot;white-space: pre;&quot;&gt;&#9;&lt;span style=&quot;white-space: pre;&quot;&gt;&#9;&lt;/span&gt;&lt;span style=&quot;white-space: pre;&quot;&gt;&#9;&lt;/span&gt;&lt;/span&gt;&lt;/font&gt;&lt;font style=&quot;&quot; color=&quot;#050505&quot;&gt;と&lt;/font&gt;&lt;/b&gt;" style="shape=partialRectangle;html=1;whiteSpace=wrap;connectable=0;overflow=hidden;fillColor=#1ba1e2;top=0;left=0;bottom=0;right=0;pointerEvents=1;rounded=0;shadow=0;sketch=0;strokeColor=#006EAF;fontColor=#ffffff;align=right;" parent="960" vertex="1">
                    <mxGeometry width="160" height="48" as="geometry">
                        <mxRectangle width="160" height="48" as="alternateBounds"/>
                    </mxGeometry>
                </mxCell>
                <mxCell id="962" value="" style="shape=tableRow;horizontal=0;startSize=0;swimlaneHead=0;swimlaneBody=0;top=0;left=0;bottom=0;right=0;collapsible=0;dropTarget=0;fillColor=none;points=[[0,0.5],[1,0.5]];portConstraint=eastwest;rounded=0;shadow=0;sketch=0;strokeColor=default;" parent="959" vertex="1">
                    <mxGeometry y="78" width="160" height="47" as="geometry"/>
                </mxCell>
                <mxCell id="963" value="&lt;div style=&quot;&quot;&gt;&lt;span style=&quot;background-color: initial;&quot;&gt;&lt;b&gt;VERBE-た&lt;span style=&quot;white-space: pre;&quot;&gt;&#9;&lt;span style=&quot;white-space: pre;&quot;&gt;&#9;&lt;/span&gt;&lt;/span&gt;&lt;span style=&quot;white-space: pre;&quot;&gt;&#9;&lt;/span&gt;&lt;/b&gt;&lt;/span&gt;&lt;b style=&quot;background-color: initial;&quot;&gt;&lt;font color=&quot;#050505&quot;&gt;と&lt;/font&gt;&lt;/b&gt;&lt;/div&gt;&lt;b&gt;&lt;div style=&quot;&quot;&gt;&lt;b style=&quot;background-color: initial;&quot;&gt;VERBE-なかった&lt;span style=&quot;white-space: pre;&quot;&gt;&#9;&lt;span style=&quot;white-space: pre;&quot;&gt;&#9;&lt;/span&gt;&lt;/span&gt;&lt;font color=&quot;#050505&quot;&gt;と&lt;/font&gt;&lt;/b&gt;&lt;/div&gt;&lt;/b&gt;" style="shape=partialRectangle;html=1;whiteSpace=wrap;connectable=0;overflow=hidden;fillColor=#6d8764;top=0;left=0;bottom=0;right=0;pointerEvents=1;rounded=0;shadow=0;sketch=0;strokeColor=#3A5431;fontColor=#ffffff;align=right;" parent="962" vertex="1">
                    <mxGeometry width="160" height="47" as="geometry">
                        <mxRectangle width="160" height="47" as="alternateBounds"/>
                    </mxGeometry>
                </mxCell>
                <mxCell id="964" value="" style="shape=tableRow;horizontal=0;startSize=0;swimlaneHead=0;swimlaneBody=0;top=0;left=0;bottom=0;right=0;collapsible=0;dropTarget=0;fillColor=none;points=[[0,0.5],[1,0.5]];portConstraint=eastwest;rounded=0;shadow=0;sketch=0;strokeColor=default;" parent="959" vertex="1">
                    <mxGeometry y="125" width="160" height="48" as="geometry"/>
                </mxCell>
                <mxCell id="965" value="&lt;b&gt;&lt;font color=&quot;#fcfcfc&quot;&gt;な-ADJだ&lt;span style=&quot;white-space: pre;&quot;&gt;&#9;&lt;/span&gt;&lt;span style=&quot;white-space: pre;&quot;&gt;&#9;&lt;span style=&quot;white-space: pre;&quot;&gt;&#9;&lt;/span&gt;&lt;/span&gt;&lt;/font&gt;と&lt;font color=&quot;#fcfcfc&quot;&gt;な-ADJじゃない&lt;span style=&quot;white-space: pre;&quot;&gt;&#9;&lt;span style=&quot;white-space: pre;&quot;&gt;&#9;&lt;/span&gt;&lt;/span&gt;&lt;/font&gt;と&lt;/b&gt;" style="shape=partialRectangle;html=1;whiteSpace=wrap;connectable=0;overflow=hidden;fillColor=#f0a30a;top=0;left=0;bottom=0;right=0;pointerEvents=1;rounded=0;shadow=0;sketch=0;strokeColor=#BD7000;fontColor=#000000;align=right;" parent="964" vertex="1">
                    <mxGeometry width="160" height="48" as="geometry">
                        <mxRectangle width="160" height="48" as="alternateBounds"/>
                    </mxGeometry>
                </mxCell>
                <mxCell id="966" value="" style="shape=tableRow;horizontal=0;startSize=0;swimlaneHead=0;swimlaneBody=0;top=0;left=0;bottom=0;right=0;collapsible=0;dropTarget=0;fillColor=none;points=[[0,0.5],[1,0.5]];portConstraint=eastwest;rounded=0;shadow=0;sketch=0;strokeColor=default;" parent="959" vertex="1">
                    <mxGeometry y="173" width="160" height="47" as="geometry"/>
                </mxCell>
                <mxCell id="967" value="&lt;b&gt;&lt;font color=&quot;#fcfcfc&quot;&gt;い-ADJ&lt;span style=&quot;white-space: pre;&quot;&gt;&#9;&lt;span style=&quot;white-space: pre;&quot;&gt;&#9;&lt;span style=&quot;white-space: pre;&quot;&gt;&#9;&lt;/span&gt;&lt;/span&gt;&lt;span style=&quot;white-space: pre;&quot;&gt;&#9;&lt;/span&gt;&lt;/span&gt;&lt;/font&gt;と&lt;br style=&quot;padding: 0px; margin: 0px;&quot;&gt;&lt;font color=&quot;#fcfcfc&quot;&gt;い-ADJくない&lt;span style=&quot;white-space: pre;&quot;&gt;&#9;&lt;span style=&quot;white-space: pre;&quot;&gt;&#9;&lt;/span&gt;&lt;span style=&quot;white-space: pre;&quot;&gt;&#9;&lt;/span&gt;&lt;/span&gt;&lt;/font&gt;と&lt;/b&gt;" style="shape=partialRectangle;html=1;whiteSpace=wrap;connectable=0;overflow=hidden;fillColor=#fa6800;top=0;left=0;bottom=0;right=0;pointerEvents=1;rounded=0;shadow=0;sketch=0;strokeColor=#C73500;fontColor=#000000;align=right;" parent="966" vertex="1">
                    <mxGeometry width="160" height="47" as="geometry">
                        <mxRectangle width="160" height="47" as="alternateBounds"/>
                    </mxGeometry>
                </mxCell>
                <mxCell id="968" value="Même si" style="shape=table;startSize=30;container=1;collapsible=0;childLayout=tableLayout;rounded=1;shadow=0;swimlaneFillColor=default;fillStyle=auto;swimlaneLine=1;gradientDirection=south;labelBorderColor=none;fontStyle=1;" parent="1" vertex="1">
                    <mxGeometry x="-1940" y="-1820" width="160" height="220" as="geometry"/>
                </mxCell>
                <mxCell id="969" value="" style="shape=tableRow;horizontal=0;startSize=0;swimlaneHead=0;swimlaneBody=0;top=0;left=0;bottom=0;right=0;collapsible=0;dropTarget=0;fillColor=none;points=[[0,0.5],[1,0.5]];portConstraint=eastwest;rounded=0;shadow=0;sketch=0;strokeColor=default;" parent="968" vertex="1">
                    <mxGeometry y="30" width="160" height="48" as="geometry"/>
                </mxCell>
                <mxCell id="970" value="&lt;div style=&quot;&quot;&gt;&lt;b style=&quot;background-color: initial;&quot;&gt;NOMで&lt;font color=&quot;#fcfcfc&quot;&gt;&lt;span style=&quot;&quot;&gt;&amp;nbsp;&lt;span style=&quot;white-space: pre;&quot;&gt;&#9;&lt;/span&gt;&lt;span style=&quot;white-space: pre;&quot;&gt;&#9;&lt;span style=&quot;white-space: pre;&quot;&gt;&#9;&lt;span style=&quot;white-space: pre;&quot;&gt;&#9;&lt;/span&gt;&lt;/span&gt;&lt;/span&gt;&lt;span style=&quot;&quot;&gt;&#9;&lt;/span&gt;&lt;/span&gt;&lt;span style=&quot;&quot;&gt;&#9;&lt;span style=&quot;&quot;&gt;&#9;&lt;/span&gt;&lt;/span&gt;&lt;/font&gt;&lt;font color=&quot;#000000&quot;&gt;も&lt;/font&gt;&lt;/b&gt;&lt;/div&gt;&lt;b&gt;NOM&lt;font style=&quot;&quot; color=&quot;#fcfcfc&quot;&gt;じゃなくて&lt;span style=&quot;white-space: pre;&quot;&gt;&lt;span style=&quot;white-space: pre;&quot;&gt;&#9;&lt;span style=&quot;white-space: pre;&quot;&gt;&#9;&lt;/span&gt;&lt;/span&gt;&lt;/span&gt;&lt;span style=&quot;&quot;&gt;&#9;&lt;/span&gt;&lt;/font&gt;&lt;font style=&quot;&quot; color=&quot;#050505&quot;&gt;も&lt;/font&gt;&lt;/b&gt;" style="shape=partialRectangle;html=1;whiteSpace=wrap;connectable=0;overflow=hidden;fillColor=#1ba1e2;top=0;left=0;bottom=0;right=0;pointerEvents=1;rounded=0;shadow=0;sketch=0;strokeColor=#006EAF;fontColor=#ffffff;align=right;" parent="969" vertex="1">
                    <mxGeometry width="160" height="48" as="geometry">
                        <mxRectangle width="160" height="48" as="alternateBounds"/>
                    </mxGeometry>
                </mxCell>
                <mxCell id="971" value="" style="shape=tableRow;horizontal=0;startSize=0;swimlaneHead=0;swimlaneBody=0;top=0;left=0;bottom=0;right=0;collapsible=0;dropTarget=0;fillColor=none;points=[[0,0.5],[1,0.5]];portConstraint=eastwest;rounded=0;shadow=0;sketch=0;strokeColor=default;" parent="968" vertex="1">
                    <mxGeometry y="78" width="160" height="47" as="geometry"/>
                </mxCell>
                <mxCell id="972" value="&lt;div style=&quot;&quot;&gt;&lt;span style=&quot;background-color: initial;&quot;&gt;&lt;b&gt;VERBE-て&lt;span style=&quot;white-space: pre;&quot;&gt;&#9;&lt;/span&gt;&lt;span style=&quot;white-space: pre;&quot;&gt;&#9;&lt;span style=&quot;white-space: pre;&quot;&gt;&#9;&lt;/span&gt;&lt;/span&gt;&lt;span style=&quot;&quot;&gt;&#9;&lt;span style=&quot;&quot;&gt;&#9;&lt;/span&gt;&lt;/span&gt;&lt;span style=&quot;&quot;&gt;&#9;&lt;/span&gt;&lt;/b&gt;&lt;/span&gt;&lt;b style=&quot;background-color: initial;&quot;&gt;&lt;font color=&quot;#050505&quot;&gt;も&lt;/font&gt;&lt;/b&gt;&lt;/div&gt;&lt;b&gt;&lt;div style=&quot;&quot;&gt;&lt;b style=&quot;background-color: initial;&quot;&gt;VERBE-なくて&lt;span style=&quot;white-space: pre;&quot;&gt;&#9;&lt;/span&gt;&lt;span style=&quot;white-space: pre;&quot;&gt;&#9;&lt;/span&gt;&lt;span style=&quot;&quot;&gt;&amp;nbsp;&lt;/span&gt;&lt;font color=&quot;#050505&quot;&gt;も&lt;/font&gt;&lt;/b&gt;&lt;/div&gt;&lt;/b&gt;" style="shape=partialRectangle;html=1;whiteSpace=wrap;connectable=0;overflow=hidden;fillColor=#6d8764;top=0;left=0;bottom=0;right=0;pointerEvents=1;rounded=0;shadow=0;sketch=0;strokeColor=#3A5431;fontColor=#ffffff;align=right;" parent="971" vertex="1">
                    <mxGeometry width="160" height="47" as="geometry">
                        <mxRectangle width="160" height="47" as="alternateBounds"/>
                    </mxGeometry>
                </mxCell>
                <mxCell id="973" value="" style="shape=tableRow;horizontal=0;startSize=0;swimlaneHead=0;swimlaneBody=0;top=0;left=0;bottom=0;right=0;collapsible=0;dropTarget=0;fillColor=none;points=[[0,0.5],[1,0.5]];portConstraint=eastwest;rounded=0;shadow=0;sketch=0;strokeColor=default;" parent="968" vertex="1">
                    <mxGeometry y="125" width="160" height="48" as="geometry"/>
                </mxCell>
                <mxCell id="974" value="&lt;b&gt;&lt;font color=&quot;#fcfcfc&quot;&gt;な-ADJで&lt;span style=&quot;white-space: pre;&quot;&gt;&#9;&lt;/span&gt;&lt;span style=&quot;white-space: pre;&quot;&gt;&#9;&lt;/span&gt;&lt;span style=&quot;white-space: pre;&quot;&gt;&#9;&lt;/span&gt;&lt;/font&gt;&lt;/b&gt;&lt;b style=&quot;color: rgb(255, 255, 255); background-color: initial;&quot;&gt;&lt;font color=&quot;#000000&quot;&gt;も&lt;/font&gt;&lt;/b&gt;&lt;b&gt;&lt;br&gt;&lt;font color=&quot;#fcfcfc&quot;&gt;な-ADJじゃなくて&lt;span style=&quot;white-space: pre;&quot;&gt;&#9;&lt;/span&gt;&lt;span style=&quot;white-space: pre;&quot;&gt;&#9;&lt;/span&gt;&lt;span style=&quot;&quot;&gt;&amp;nbsp;&lt;span style=&quot;&quot;&gt;&#9;&lt;/span&gt;&lt;/span&gt;&lt;/font&gt;&lt;/b&gt;&lt;b style=&quot;color: rgb(255, 255, 255); background-color: initial;&quot;&gt;&lt;font color=&quot;#000000&quot;&gt;も&lt;/font&gt;&lt;/b&gt;" style="shape=partialRectangle;html=1;whiteSpace=wrap;connectable=0;overflow=hidden;fillColor=#f0a30a;top=0;left=0;bottom=0;right=0;pointerEvents=1;rounded=0;shadow=0;sketch=0;strokeColor=#BD7000;fontColor=#000000;align=right;" parent="973" vertex="1">
                    <mxGeometry width="160" height="48" as="geometry">
                        <mxRectangle width="160" height="48" as="alternateBounds"/>
                    </mxGeometry>
                </mxCell>
                <mxCell id="975" value="" style="shape=tableRow;horizontal=0;startSize=0;swimlaneHead=0;swimlaneBody=0;top=0;left=0;bottom=0;right=0;collapsible=0;dropTarget=0;fillColor=none;points=[[0,0.5],[1,0.5]];portConstraint=eastwest;rounded=0;shadow=0;sketch=0;strokeColor=default;" parent="968" vertex="1">
                    <mxGeometry y="173" width="160" height="47" as="geometry"/>
                </mxCell>
                <mxCell id="976" value="&lt;b&gt;&lt;font color=&quot;#fcfcfc&quot;&gt;い-ADJ&lt;strike&gt;い&lt;/strike&gt;くて&lt;span style=&quot;white-space: pre;&quot;&gt;&#9;&lt;/span&gt;&lt;span style=&quot;white-space: pre;&quot;&gt;&#9;&lt;span style=&quot;white-space: pre;&quot;&gt;&#9;&lt;/span&gt;&lt;/span&gt;&lt;span style=&quot;&quot;&gt;&lt;span style=&quot;&quot;&gt;&#9;&lt;/span&gt;&lt;/span&gt;&lt;/font&gt;&lt;/b&gt;&lt;b style=&quot;color: rgb(255, 255, 255); background-color: initial;&quot;&gt;&lt;font color=&quot;#000000&quot;&gt;も&lt;/font&gt;&lt;/b&gt;&lt;b&gt;&lt;br style=&quot;padding: 0px; margin: 0px;&quot;&gt;&lt;font color=&quot;#fcfcfc&quot;&gt;い-ADJ&lt;strike&gt;い&lt;/strike&gt;なくて&lt;span style=&quot;white-space: pre;&quot;&gt;&#9;&lt;/span&gt;&lt;span style=&quot;white-space: pre;&quot;&gt;&#9;&lt;/span&gt;&lt;span style=&quot;&quot;&gt;&amp;nbsp;&lt;/span&gt;&lt;/font&gt;&lt;/b&gt;&lt;b style=&quot;color: rgb(255, 255, 255); background-color: initial;&quot;&gt;&lt;font color=&quot;#000000&quot;&gt;も&lt;/font&gt;&lt;/b&gt;" style="shape=partialRectangle;html=1;whiteSpace=wrap;connectable=0;overflow=hidden;fillColor=#fa6800;top=0;left=0;bottom=0;right=0;pointerEvents=1;rounded=0;shadow=0;sketch=0;strokeColor=#C73500;fontColor=#000000;align=right;" parent="975" vertex="1">
                    <mxGeometry width="160" height="47" as="geometry">
                        <mxRectangle width="160" height="47" as="alternateBounds"/>
                    </mxGeometry>
                </mxCell>
                <mxCell id="1037" value="Forme V-た" style="shape=table;startSize=30;container=1;collapsible=0;childLayout=tableLayout;fillColor=#d80073;fontColor=#ffffff;strokeColor=#A50040;rounded=1;" parent="1" vertex="1">
                    <mxGeometry x="-892.75" y="-2180" width="722.5" height="110" as="geometry"/>
                </mxCell>
                <mxCell id="1092" value="" style="shape=tableRow;horizontal=0;startSize=0;swimlaneHead=0;swimlaneBody=0;top=0;left=0;bottom=0;right=0;collapsible=0;dropTarget=0;fillColor=none;points=[[0,0.5],[1,0.5]];portConstraint=eastwest;" parent="1037" vertex="1">
                    <mxGeometry y="30" width="722.5" height="40" as="geometry"/>
                </mxCell>
                <mxCell id="1093" value="&lt;font color=&quot;#ff0080&quot;&gt;&lt;span&gt;V-た&lt;/span&gt;&lt;/font&gt; + ことが + あります" style="shape=partialRectangle;html=1;whiteSpace=wrap;connectable=0;overflow=hidden;fillColor=none;top=0;left=0;bottom=0;right=0;pointerEvents=1;fontStyle=1" parent="1092" vertex="1">
                    <mxGeometry width="264" height="40" as="geometry">
                        <mxRectangle width="264" height="40" as="alternateBounds"/>
                    </mxGeometry>
                </mxCell>
                <mxCell id="1094" value="Expérience" style="shape=partialRectangle;html=1;whiteSpace=wrap;connectable=0;overflow=hidden;fillColor=none;top=0;left=0;bottom=0;right=0;pointerEvents=1;fontStyle=1" parent="1092" vertex="1">
                    <mxGeometry x="264" width="229" height="40" as="geometry">
                        <mxRectangle width="229" height="40" as="alternateBounds"/>
                    </mxGeometry>
                </mxCell>
                <mxCell id="1698" style="shape=partialRectangle;html=1;whiteSpace=wrap;connectable=0;overflow=hidden;fillColor=none;top=0;left=0;bottom=0;right=0;pointerEvents=1;fontStyle=1" parent="1092" vertex="1">
                    <mxGeometry x="493" width="230" height="40" as="geometry">
                        <mxRectangle width="230" height="40" as="alternateBounds"/>
                    </mxGeometry>
                </mxCell>
                <mxCell id="1047" value="" style="shape=tableRow;horizontal=0;startSize=0;swimlaneHead=0;swimlaneBody=0;top=0;left=0;bottom=0;right=0;collapsible=0;dropTarget=0;fillColor=none;points=[[0,0.5],[1,0.5]];portConstraint=eastwest;" parent="1037" vertex="1">
                    <mxGeometry y="70" width="722.5" height="40" as="geometry"/>
                </mxCell>
                <mxCell id="1048" value="V-たり" style="shape=partialRectangle;html=1;whiteSpace=wrap;connectable=0;overflow=hidden;fillColor=none;top=0;left=0;bottom=0;right=0;pointerEvents=1;fontStyle=1" parent="1047" vertex="1">
                    <mxGeometry width="264" height="40" as="geometry">
                        <mxRectangle width="264" height="40" as="alternateBounds"/>
                    </mxGeometry>
                </mxCell>
                <mxCell id="1049" value="énumération" style="shape=partialRectangle;html=1;whiteSpace=wrap;connectable=0;overflow=hidden;fillColor=none;top=0;left=0;bottom=0;right=0;pointerEvents=1;fontStyle=1" parent="1047" vertex="1">
                    <mxGeometry x="264" width="229" height="40" as="geometry">
                        <mxRectangle width="229" height="40" as="alternateBounds"/>
                    </mxGeometry>
                </mxCell>
                <mxCell id="1699" style="shape=partialRectangle;html=1;whiteSpace=wrap;connectable=0;overflow=hidden;fillColor=none;top=0;left=0;bottom=0;right=0;pointerEvents=1;fontStyle=1" parent="1047" vertex="1">
                    <mxGeometry x="493" width="230" height="40" as="geometry">
                        <mxRectangle width="230" height="40" as="alternateBounds"/>
                    </mxGeometry>
                </mxCell>
                <mxCell id="1098" value="NOM を 手伝[てつだ]う, V-る の を 手伝う" style="whiteSpace=wrap;html=1;" parent="1" vertex="1">
                    <mxGeometry x="430" y="-1060" width="173" height="100" as="geometry"/>
                </mxCell>
                <mxCell id="1100" value="Forme V-う" style="shape=table;startSize=30;container=1;collapsible=0;childLayout=tableLayout;fillColor=#60a917;fontColor=#ffffff;strokeColor=#2D7600;rounded=1;" parent="1" vertex="1">
                    <mxGeometry x="-892.75" y="-2315" width="735" height="110" as="geometry"/>
                </mxCell>
                <mxCell id="1128" value="" style="shape=tableRow;horizontal=0;startSize=0;swimlaneHead=0;swimlaneBody=0;top=0;left=0;bottom=0;right=0;collapsible=0;dropTarget=0;fillColor=none;points=[[0,0.5],[1,0.5]];portConstraint=eastwest;" parent="1100" vertex="1">
                    <mxGeometry y="30" width="735" height="40" as="geometry"/>
                </mxCell>
                <mxCell id="1129" value="&lt;b&gt;&lt;font color=&quot;#00cc00&quot;&gt;V-う&lt;/font&gt; + ことができます&lt;/b&gt;" style="shape=partialRectangle;html=1;whiteSpace=wrap;connectable=0;overflow=hidden;fillColor=none;top=0;left=0;bottom=0;right=0;pointerEvents=1;" parent="1128" vertex="1">
                    <mxGeometry width="245" height="40" as="geometry">
                        <mxRectangle width="245" height="40" as="alternateBounds"/>
                    </mxGeometry>
                </mxCell>
                <mxCell id="1130" value="Forme &lt;i&gt;pouvoir&lt;/i&gt;" style="shape=partialRectangle;html=1;whiteSpace=wrap;connectable=0;overflow=hidden;fillColor=none;top=0;left=0;bottom=0;right=0;pointerEvents=1;fontStyle=1" parent="1128" vertex="1">
                    <mxGeometry x="245" width="245" height="40" as="geometry">
                        <mxRectangle width="245" height="40" as="alternateBounds"/>
                    </mxGeometry>
                </mxCell>
                <mxCell id="1616" style="shape=partialRectangle;html=1;whiteSpace=wrap;connectable=0;overflow=hidden;fillColor=none;top=0;left=0;bottom=0;right=0;pointerEvents=1;fontStyle=1" parent="1128" vertex="1">
                    <mxGeometry x="490" width="245" height="40" as="geometry">
                        <mxRectangle width="245" height="40" as="alternateBounds"/>
                    </mxGeometry>
                </mxCell>
                <mxCell id="1119" value="" style="shape=tableRow;horizontal=0;startSize=0;swimlaneHead=0;swimlaneBody=0;top=0;left=0;bottom=0;right=0;collapsible=0;dropTarget=0;fillColor=none;points=[[0,0.5],[1,0.5]];portConstraint=eastwest;" parent="1100" vertex="1">
                    <mxGeometry y="70" width="735" height="40" as="geometry"/>
                </mxCell>
                <mxCell id="1120" value="&lt;b&gt;&lt;font color=&quot;#00cc00&quot;&gt;V-う&lt;/font&gt;&amp;nbsp;+ ように phrase&lt;/b&gt;" style="shape=partialRectangle;html=1;whiteSpace=wrap;connectable=0;overflow=hidden;fillColor=none;top=0;left=0;bottom=0;right=0;pointerEvents=1;" parent="1119" vertex="1">
                    <mxGeometry width="245" height="40" as="geometry">
                        <mxRectangle width="245" height="40" as="alternateBounds"/>
                    </mxGeometry>
                </mxCell>
                <mxCell id="1121" value="&lt;b&gt;Forme &lt;i&gt;ordre&lt;/i&gt;&lt;/b&gt;" style="shape=partialRectangle;html=1;whiteSpace=wrap;connectable=0;overflow=hidden;fillColor=none;top=0;left=0;bottom=0;right=0;pointerEvents=1;" parent="1119" vertex="1">
                    <mxGeometry x="245" width="245" height="40" as="geometry">
                        <mxRectangle width="245" height="40" as="alternateBounds"/>
                    </mxGeometry>
                </mxCell>
                <mxCell id="1617" value="友達はケーキを食べるように言いました。&lt;br&gt;Mon ami m'a demandé de mangé le gâteau." style="shape=partialRectangle;html=1;whiteSpace=wrap;connectable=0;overflow=hidden;fillColor=none;top=0;left=0;bottom=0;right=0;pointerEvents=1;" parent="1119" vertex="1">
                    <mxGeometry x="490" width="245" height="40" as="geometry">
                        <mxRectangle width="245" height="40" as="alternateBounds"/>
                    </mxGeometry>
                </mxCell>
                <mxCell id="1224" value="Forme V-て" style="shape=table;startSize=30;container=1;collapsible=0;childLayout=tableLayout;rounded=1;fillColor=#1ba1e2;fontColor=#ffffff;strokeColor=#006EAF;" parent="1" vertex="1">
                    <mxGeometry x="-1550" y="-2320" width="613" height="730" as="geometry"/>
                </mxCell>
                <mxCell id="1113" value="" style="shape=tableRow;horizontal=0;startSize=0;swimlaneHead=0;swimlaneBody=0;top=0;left=0;bottom=0;right=0;collapsible=0;dropTarget=0;fillColor=none;points=[[0,0.5],[1,0.5]];portConstraint=eastwest;" parent="1224" vertex="1">
                    <mxGeometry y="30" width="613" height="37" as="geometry"/>
                </mxCell>
                <mxCell id="1114" value="&lt;b&gt;&lt;font color=&quot;#43cdf0&quot;&gt;V-て&lt;/font&gt;&lt;/b&gt;&lt;b&gt;&lt;font color=&quot;#43cdf0&quot;&gt;&lt;br&gt;V-て&lt;/font&gt;&amp;nbsp;+ ください&amp;nbsp;&lt;/b&gt;&lt;b&gt;&lt;br&gt;&lt;/b&gt;" style="shape=partialRectangle;html=1;whiteSpace=wrap;connectable=0;overflow=hidden;fillColor=default;top=0;left=0;bottom=0;right=0;pointerEvents=1;" parent="1113" vertex="1">
                    <mxGeometry width="186" height="37" as="geometry">
                        <mxRectangle width="186" height="37" as="alternateBounds"/>
                    </mxGeometry>
                </mxCell>
                <mxCell id="1115" value="Forme&amp;nbsp;&lt;i&gt;STP&lt;/i&gt;&lt;br&gt;Forme &lt;i&gt;SVP&lt;/i&gt;&lt;i&gt;&lt;br&gt;&lt;/i&gt;" style="shape=partialRectangle;html=1;whiteSpace=wrap;connectable=0;overflow=hidden;fillColor=default;top=0;left=0;bottom=0;right=0;pointerEvents=1;fontStyle=1" parent="1113" vertex="1">
                    <mxGeometry x="186" width="211" height="37" as="geometry">
                        <mxRectangle width="211" height="37" as="alternateBounds"/>
                    </mxGeometry>
                </mxCell>
                <mxCell id="1514" value="" style="shape=partialRectangle;html=1;whiteSpace=wrap;connectable=0;overflow=hidden;fillColor=default;top=0;left=0;bottom=0;right=0;pointerEvents=1;" parent="1113" vertex="1">
                    <mxGeometry x="397" width="216" height="37" as="geometry">
                        <mxRectangle width="216" height="37" as="alternateBounds"/>
                    </mxGeometry>
                </mxCell>
                <mxCell id="1044" value="" style="shape=tableRow;horizontal=0;startSize=0;swimlaneHead=0;swimlaneBody=0;top=0;left=0;bottom=0;right=0;collapsible=0;dropTarget=0;fillColor=none;points=[[0,0.5],[1,0.5]];portConstraint=eastwest;" parent="1224" vertex="1">
                    <mxGeometry y="67" width="613" height="38" as="geometry"/>
                </mxCell>
                <mxCell id="1045" value="&lt;b&gt;&lt;font color=&quot;#43cdf0&quot;&gt;V-て&lt;/font&gt; + も いいですか。&lt;/b&gt;" style="shape=partialRectangle;html=1;whiteSpace=wrap;connectable=0;overflow=hidden;fillColor=#050505;top=0;left=0;bottom=0;right=0;pointerEvents=1;" parent="1044" vertex="1">
                    <mxGeometry width="186" height="38" as="geometry">
                        <mxRectangle width="186" height="38" as="alternateBounds"/>
                    </mxGeometry>
                </mxCell>
                <mxCell id="1046" value="Forme &lt;i&gt;permission&lt;/i&gt;" style="shape=partialRectangle;html=1;whiteSpace=wrap;connectable=0;overflow=hidden;fillColor=#050505;top=0;left=0;bottom=0;right=0;pointerEvents=1;fontStyle=1" parent="1044" vertex="1">
                    <mxGeometry x="186" width="211" height="38" as="geometry">
                        <mxRectangle width="211" height="38" as="alternateBounds"/>
                    </mxGeometry>
                </mxCell>
                <mxCell id="1337" value="" style="shape=partialRectangle;html=1;whiteSpace=wrap;connectable=0;overflow=hidden;fillColor=#050505;top=0;left=0;bottom=0;right=0;pointerEvents=1;" parent="1044" vertex="1">
                    <mxGeometry x="397" width="216" height="38" as="geometry">
                        <mxRectangle width="216" height="38" as="alternateBounds"/>
                    </mxGeometry>
                </mxCell>
                <mxCell id="1229" value="" style="shape=tableRow;horizontal=0;startSize=0;swimlaneHead=0;swimlaneBody=0;top=0;left=0;bottom=0;right=0;collapsible=0;dropTarget=0;fillColor=none;points=[[0,0.5],[1,0.5]];portConstraint=eastwest;rounded=1;" parent="1224" vertex="1">
                    <mxGeometry y="105" width="613" height="37" as="geometry"/>
                </mxCell>
                <mxCell id="1230" value="&lt;font color=&quot;#43cdf0&quot;&gt;V-て &lt;/font&gt;&lt;font color=&quot;#fcfcfc&quot;&gt;+ は いけません&lt;/font&gt;" style="shape=partialRectangle;html=1;whiteSpace=wrap;connectable=0;overflow=hidden;fillColor=default;top=0;left=0;bottom=0;right=0;pointerEvents=1;rounded=1;fontStyle=1" parent="1229" vertex="1">
                    <mxGeometry width="186" height="37" as="geometry">
                        <mxRectangle width="186" height="37" as="alternateBounds"/>
                    </mxGeometry>
                </mxCell>
                <mxCell id="1231" value="&lt;b&gt;Forme &lt;i&gt;interdiction&lt;/i&gt;&lt;/b&gt;" style="shape=partialRectangle;html=1;whiteSpace=wrap;connectable=0;overflow=hidden;fillColor=default;top=0;left=0;bottom=0;right=0;pointerEvents=1;rounded=1;" parent="1229" vertex="1">
                    <mxGeometry x="186" width="211" height="37" as="geometry">
                        <mxRectangle width="211" height="37" as="alternateBounds"/>
                    </mxGeometry>
                </mxCell>
                <mxCell id="1232" value="" style="shape=partialRectangle;html=1;whiteSpace=wrap;connectable=0;overflow=hidden;fillColor=default;top=0;left=0;bottom=0;right=0;pointerEvents=1;rounded=1;" parent="1229" vertex="1">
                    <mxGeometry x="397" width="216" height="37" as="geometry">
                        <mxRectangle width="216" height="37" as="alternateBounds"/>
                    </mxGeometry>
                </mxCell>
                <mxCell id="1095" value="" style="shape=tableRow;horizontal=0;startSize=0;swimlaneHead=0;swimlaneBody=0;top=0;left=0;bottom=0;right=0;collapsible=0;dropTarget=0;fillColor=none;points=[[0,0.5],[1,0.5]];portConstraint=eastwest;" parent="1224" vertex="1">
                    <mxGeometry y="142" width="613" height="37" as="geometry"/>
                </mxCell>
                <mxCell id="1096" value="&lt;b&gt;&lt;font color=&quot;#43cdf0&quot;&gt;V-て&lt;/font&gt;&amp;nbsp;+ いただけませんか。&lt;/b&gt;" style="shape=partialRectangle;html=1;whiteSpace=wrap;connectable=0;overflow=hidden;fillColor=#050505;top=0;left=0;bottom=0;right=0;pointerEvents=1;" parent="1095" vertex="1">
                    <mxGeometry width="186" height="37" as="geometry">
                        <mxRectangle width="186" height="37" as="alternateBounds"/>
                    </mxGeometry>
                </mxCell>
                <mxCell id="1097" value="&lt;b&gt;Forme &lt;i&gt;pouvez-vous...?&lt;/i&gt;&amp;nbsp;&lt;/b&gt;" style="shape=partialRectangle;html=1;whiteSpace=wrap;connectable=0;overflow=hidden;fillColor=#050505;top=0;left=0;bottom=0;right=0;pointerEvents=1;" parent="1095" vertex="1">
                    <mxGeometry x="186" width="211" height="37" as="geometry">
                        <mxRectangle width="211" height="37" as="alternateBounds"/>
                    </mxGeometry>
                </mxCell>
                <mxCell id="1510" value="" style="shape=partialRectangle;html=1;whiteSpace=wrap;connectable=0;overflow=hidden;fillColor=#050505;top=0;left=0;bottom=0;right=0;pointerEvents=1;" parent="1095" vertex="1">
                    <mxGeometry x="397" width="216" height="37" as="geometry">
                        <mxRectangle width="216" height="37" as="alternateBounds"/>
                    </mxGeometry>
                </mxCell>
                <mxCell id="1110" value="" style="shape=tableRow;horizontal=0;startSize=0;swimlaneHead=0;swimlaneBody=0;top=0;left=0;bottom=0;right=0;collapsible=0;dropTarget=0;fillColor=none;points=[[0,0.5],[1,0.5]];portConstraint=eastwest;" parent="1224" vertex="1">
                    <mxGeometry y="179" width="613" height="66" as="geometry"/>
                </mxCell>
                <mxCell id="1111" value="&lt;b&gt;&lt;font color=&quot;#43cdf0&quot;&gt;V-て&lt;/font&gt;&amp;nbsp;+ います&lt;/b&gt;" style="shape=partialRectangle;html=1;whiteSpace=wrap;connectable=0;overflow=hidden;fillColor=default;top=0;left=0;bottom=0;right=0;pointerEvents=1;" parent="1110" vertex="1">
                    <mxGeometry width="186" height="66" as="geometry">
                        <mxRectangle width="186" height="66" as="alternateBounds"/>
                    </mxGeometry>
                </mxCell>
                <mxCell id="1112" value="&lt;b&gt;Forme &lt;i&gt;habitude&lt;/i&gt;,&lt;br&gt;Forme &lt;i&gt;en train de&lt;/i&gt;,&lt;br&gt;Forme &lt;i&gt;état&lt;/i&gt;,&lt;br&gt;Forme &lt;i&gt;situation&lt;/i&gt;&lt;/b&gt;" style="shape=partialRectangle;html=1;whiteSpace=wrap;connectable=0;overflow=hidden;fillColor=default;top=0;left=0;bottom=0;right=0;pointerEvents=1;" parent="1110" vertex="1">
                    <mxGeometry x="186" width="211" height="66" as="geometry">
                        <mxRectangle width="211" height="66" as="alternateBounds"/>
                    </mxGeometry>
                </mxCell>
                <mxCell id="1513" value="" style="shape=partialRectangle;html=1;whiteSpace=wrap;connectable=0;overflow=hidden;fillColor=default;top=0;left=0;bottom=0;right=0;pointerEvents=1;" parent="1110" vertex="1">
                    <mxGeometry x="397" width="216" height="66" as="geometry">
                        <mxRectangle width="216" height="66" as="alternateBounds"/>
                    </mxGeometry>
                </mxCell>
                <mxCell id="1233" value="" style="shape=tableRow;horizontal=0;startSize=0;swimlaneHead=0;swimlaneBody=0;top=0;left=0;bottom=0;right=0;collapsible=0;dropTarget=0;fillColor=#050505;points=[[0,0.5],[1,0.5]];portConstraint=eastwest;rounded=1;" parent="1224" vertex="1">
                    <mxGeometry y="245" width="613" height="37" as="geometry"/>
                </mxCell>
                <mxCell id="1234" value="&lt;b style=&quot;color: rgb(240, 240, 240);&quot;&gt;&lt;font color=&quot;#43cdf0&quot;&gt;V-て&lt;/font&gt;&lt;/b&gt;&lt;b&gt;&amp;nbsp;+ みます&lt;/b&gt;" style="shape=partialRectangle;html=1;whiteSpace=wrap;connectable=0;overflow=hidden;fillColor=#050505;top=0;left=0;bottom=0;right=0;pointerEvents=1;rounded=1;strokeColor=#432D57;fontColor=#ffffff;" parent="1233" vertex="1">
                    <mxGeometry width="186" height="37" as="geometry">
                        <mxRectangle width="186" height="37" as="alternateBounds"/>
                    </mxGeometry>
                </mxCell>
                <mxCell id="1235" value="&lt;b style=&quot;&quot;&gt;Forme &lt;i&gt;essayer&lt;/i&gt;&lt;/b&gt;" style="shape=partialRectangle;html=1;whiteSpace=wrap;connectable=0;overflow=hidden;fillColor=#050505;top=0;left=0;bottom=0;right=0;pointerEvents=1;rounded=1;strokeColor=#432D57;fontColor=#ffffff;" parent="1233" vertex="1">
                    <mxGeometry x="186" width="211" height="37" as="geometry">
                        <mxRectangle width="211" height="37" as="alternateBounds"/>
                    </mxGeometry>
                </mxCell>
                <mxCell id="1236" value="食べてみた" style="shape=partialRectangle;html=1;whiteSpace=wrap;connectable=0;overflow=hidden;fillColor=#050505;top=0;left=0;bottom=0;right=0;pointerEvents=1;rounded=1;fontColor=#ffffff;strokeColor=#432D57;" parent="1233" vertex="1">
                    <mxGeometry x="397" width="216" height="37" as="geometry">
                        <mxRectangle width="216" height="37" as="alternateBounds"/>
                    </mxGeometry>
                </mxCell>
                <mxCell id="1225" value="" style="shape=tableRow;horizontal=0;startSize=0;swimlaneHead=0;swimlaneBody=0;top=0;left=0;bottom=0;right=0;collapsible=0;dropTarget=0;fillColor=none;points=[[0,0.5],[1,0.5]];portConstraint=eastwest;rounded=1;" parent="1224" vertex="1">
                    <mxGeometry y="282" width="613" height="65" as="geometry"/>
                </mxCell>
                <mxCell id="1226" value="&lt;b&gt;&lt;font color=&quot;#43cdf0&quot;&gt;V-て&lt;/font&gt;&amp;nbsp;+あげる&lt;br&gt;&lt;font color=&quot;#43cdf0&quot;&gt;V-て&lt;/font&gt;&amp;nbsp;+&amp;nbsp;まらう&lt;br&gt;&lt;font color=&quot;#43cdf0&quot;&gt;V-て&lt;/font&gt;&amp;nbsp;+ くれる&lt;br&gt;&lt;/b&gt;" style="shape=partialRectangle;html=1;whiteSpace=wrap;connectable=0;overflow=hidden;fillColor=default;top=0;left=0;bottom=0;right=0;pointerEvents=1;rounded=1;" parent="1225" vertex="1">
                    <mxGeometry width="186" height="65" as="geometry">
                        <mxRectangle width="186" height="65" as="alternateBounds"/>
                    </mxGeometry>
                </mxCell>
                <mxCell id="1227" value="&lt;b style=&quot;&quot;&gt;Forme &lt;i&gt;donner&lt;br&gt;&lt;/i&gt;&lt;/b&gt;&lt;b&gt;Forme &lt;i&gt;recevoir&lt;br&gt;&lt;/i&gt;&lt;/b&gt;&lt;b&gt;Forme&amp;nbsp;&lt;i&gt;me donner&lt;/i&gt;&lt;/b&gt;&lt;b style=&quot;&quot;&gt;&lt;i&gt;&lt;br&gt;&lt;/i&gt;&lt;/b&gt;" style="shape=partialRectangle;html=1;whiteSpace=wrap;connectable=0;overflow=hidden;fillColor=default;top=0;left=0;bottom=0;right=0;pointerEvents=1;rounded=1;" parent="1225" vertex="1">
                    <mxGeometry x="186" width="211" height="65" as="geometry">
                        <mxRectangle width="211" height="65" as="alternateBounds"/>
                    </mxGeometry>
                </mxCell>
                <mxCell id="1228" value="" style="shape=partialRectangle;html=1;whiteSpace=wrap;connectable=0;overflow=hidden;fillColor=default;top=0;left=0;bottom=0;right=0;pointerEvents=1;rounded=1;" parent="1225" vertex="1">
                    <mxGeometry x="397" width="216" height="65" as="geometry">
                        <mxRectangle width="216" height="65" as="alternateBounds"/>
                    </mxGeometry>
                </mxCell>
                <mxCell id="1056" value="" style="shape=tableRow;horizontal=0;startSize=0;swimlaneHead=0;swimlaneBody=0;top=0;left=0;bottom=0;right=0;collapsible=0;dropTarget=0;fillColor=none;points=[[0,0.5],[1,0.5]];portConstraint=eastwest;" parent="1224" vertex="1">
                    <mxGeometry y="347" width="613" height="38" as="geometry"/>
                </mxCell>
                <mxCell id="1057" value="&lt;b&gt;(CODを) を-&lt;/b&gt;&lt;b&gt;&lt;font color=&quot;#43cdf0&quot;&gt;V-て&lt;/font&gt;&lt;/b&gt;&lt;b&gt;&amp;nbsp;+ おく&lt;br&gt;&lt;/b&gt;&lt;b&gt;(CODを)&amp;nbsp;&lt;/b&gt;&lt;b&gt;そのままに&lt;font color=&quot;#43cdf0&quot;&gt;して&lt;/font&gt; + おく&lt;/b&gt;" style="shape=partialRectangle;html=1;whiteSpace=wrap;connectable=0;overflow=hidden;top=0;left=0;bottom=0;right=0;pointerEvents=1;fillColor=#050505;" parent="1056" vertex="1">
                    <mxGeometry width="186" height="38" as="geometry">
                        <mxRectangle width="186" height="38" as="alternateBounds"/>
                    </mxGeometry>
                </mxCell>
                <mxCell id="1058" value="&lt;b&gt;Forme &lt;i&gt;Laisser&lt;/i&gt;&lt;/b&gt;" style="shape=partialRectangle;html=1;whiteSpace=wrap;connectable=0;overflow=hidden;fillColor=#050505;top=0;left=0;bottom=0;right=0;pointerEvents=1;" parent="1056" vertex="1">
                    <mxGeometry x="186" width="211" height="38" as="geometry">
                        <mxRectangle width="211" height="38" as="alternateBounds"/>
                    </mxGeometry>
                </mxCell>
                <mxCell id="1502" value="" style="shape=partialRectangle;html=1;whiteSpace=wrap;connectable=0;overflow=hidden;fillColor=#050505;top=0;left=0;bottom=0;right=0;pointerEvents=1;" parent="1056" vertex="1">
                    <mxGeometry x="397" width="216" height="38" as="geometry">
                        <mxRectangle width="216" height="38" as="alternateBounds"/>
                    </mxGeometry>
                </mxCell>
                <mxCell id="1062" value="" style="shape=tableRow;horizontal=0;startSize=0;swimlaneHead=0;swimlaneBody=0;top=0;left=0;bottom=0;right=0;collapsible=0;dropTarget=0;fillColor=none;points=[[0,0.5],[1,0.5]];portConstraint=eastwest;" parent="1224" vertex="1">
                    <mxGeometry y="385" width="613" height="37" as="geometry"/>
                </mxCell>
                <mxCell id="1063" value="&lt;span&gt;&lt;font color=&quot;#43cdf0&quot;&gt;V-て&lt;/font&gt;&lt;/span&gt;&amp;nbsp;+ おく" style="shape=partialRectangle;html=1;whiteSpace=wrap;connectable=0;overflow=hidden;fillColor=default;top=0;left=0;bottom=0;right=0;pointerEvents=1;fontStyle=1" parent="1062" vertex="1">
                    <mxGeometry width="186" height="37" as="geometry">
                        <mxRectangle width="186" height="37" as="alternateBounds"/>
                    </mxGeometry>
                </mxCell>
                <mxCell id="1064" value="&lt;b&gt;Forme&amp;nbsp;&lt;i&gt;en prévision&lt;/i&gt;&lt;br&gt;(passé-passé/futur-futur)&lt;/b&gt;" style="shape=partialRectangle;html=1;whiteSpace=wrap;connectable=0;overflow=hidden;fillColor=default;top=0;left=0;bottom=0;right=0;pointerEvents=1;" parent="1062" vertex="1">
                    <mxGeometry x="186" width="211" height="37" as="geometry">
                        <mxRectangle width="211" height="37" as="alternateBounds"/>
                    </mxGeometry>
                </mxCell>
                <mxCell id="1504" value="" style="shape=partialRectangle;html=1;whiteSpace=wrap;connectable=0;overflow=hidden;fillColor=default;top=0;left=0;bottom=0;right=0;pointerEvents=1;" parent="1062" vertex="1">
                    <mxGeometry x="397" width="216" height="37" as="geometry">
                        <mxRectangle width="216" height="37" as="alternateBounds"/>
                    </mxGeometry>
                </mxCell>
                <mxCell id="1107" value="" style="shape=tableRow;horizontal=0;startSize=0;swimlaneHead=0;swimlaneBody=0;top=0;left=0;bottom=0;right=0;collapsible=0;dropTarget=0;fillColor=none;points=[[0,0.5],[1,0.5]];portConstraint=eastwest;" parent="1224" vertex="1">
                    <mxGeometry y="422" width="613" height="37" as="geometry"/>
                </mxCell>
                <mxCell id="1108" value="&lt;b&gt;(CODは)&amp;nbsp;&lt;/b&gt;&lt;b&gt;&lt;font color=&quot;#43cdf0&quot;&gt;V-て&lt;/font&gt;&lt;/b&gt;&lt;b&gt;&amp;nbsp;+ あります、&lt;br&gt;&lt;/b&gt;&lt;b&gt;&lt;font color=&quot;#43cdf0&quot;&gt;V-て&lt;/font&gt;&lt;/b&gt;&lt;b&gt;&amp;nbsp;いません&lt;/b&gt;" style="shape=partialRectangle;html=1;whiteSpace=wrap;connectable=0;overflow=hidden;fillColor=#050505;top=0;left=0;bottom=0;right=0;pointerEvents=1;" parent="1107" vertex="1">
                    <mxGeometry width="186" height="37" as="geometry">
                        <mxRectangle width="186" height="37" as="alternateBounds"/>
                    </mxGeometry>
                </mxCell>
                <mxCell id="1109" value="Forme &lt;i&gt;prévision&lt;/i&gt;&lt;br&gt;(passé pour futur)" style="shape=partialRectangle;html=1;whiteSpace=wrap;connectable=0;overflow=hidden;fillColor=#050505;top=0;left=0;bottom=0;right=0;pointerEvents=1;fontStyle=1" parent="1107" vertex="1">
                    <mxGeometry x="186" width="211" height="37" as="geometry">
                        <mxRectangle width="211" height="37" as="alternateBounds"/>
                    </mxGeometry>
                </mxCell>
                <mxCell id="1512" value="" style="shape=partialRectangle;html=1;whiteSpace=wrap;connectable=0;overflow=hidden;fillColor=#050505;top=0;left=0;bottom=0;right=0;pointerEvents=1;" parent="1107" vertex="1">
                    <mxGeometry x="397" width="216" height="37" as="geometry">
                        <mxRectangle width="216" height="37" as="alternateBounds"/>
                    </mxGeometry>
                </mxCell>
                <mxCell id="1050" value="" style="shape=tableRow;horizontal=0;startSize=0;swimlaneHead=0;swimlaneBody=0;top=0;left=0;bottom=0;right=0;collapsible=0;dropTarget=0;fillColor=none;points=[[0,0.5],[1,0.5]];portConstraint=eastwest;" parent="1224" vertex="1">
                    <mxGeometry y="459" width="613" height="38" as="geometry"/>
                </mxCell>
                <mxCell id="1051" value="&lt;span&gt;&lt;font color=&quot;#43cdf0&quot;&gt;V-て&lt;/font&gt;&lt;/span&gt;&amp;nbsp;+ しまいました" style="shape=partialRectangle;html=1;whiteSpace=wrap;connectable=0;overflow=hidden;fillColor=default;top=0;left=0;bottom=0;right=0;pointerEvents=1;fontStyle=1" parent="1050" vertex="1">
                    <mxGeometry width="186" height="38" as="geometry">
                        <mxRectangle width="186" height="38" as="alternateBounds"/>
                    </mxGeometry>
                </mxCell>
                <mxCell id="1052" value="Forme &lt;i&gt;Dommage&lt;/i&gt;" style="shape=partialRectangle;html=1;whiteSpace=wrap;connectable=0;overflow=hidden;fillColor=default;top=0;left=0;bottom=0;right=0;pointerEvents=1;fontStyle=1" parent="1050" vertex="1">
                    <mxGeometry x="186" width="211" height="38" as="geometry">
                        <mxRectangle width="211" height="38" as="alternateBounds"/>
                    </mxGeometry>
                </mxCell>
                <mxCell id="1501" value="" style="shape=partialRectangle;html=1;whiteSpace=wrap;connectable=0;overflow=hidden;fillColor=default;top=0;left=0;bottom=0;right=0;pointerEvents=1;" parent="1050" vertex="1">
                    <mxGeometry x="397" width="216" height="38" as="geometry">
                        <mxRectangle width="216" height="38" as="alternateBounds"/>
                    </mxGeometry>
                </mxCell>
                <mxCell id="1059" value="" style="shape=tableRow;horizontal=0;startSize=0;swimlaneHead=0;swimlaneBody=0;top=0;left=0;bottom=0;right=0;collapsible=0;dropTarget=0;fillColor=none;points=[[0,0.5],[1,0.5]];portConstraint=eastwest;" parent="1224" vertex="1">
                    <mxGeometry y="497" width="613" height="37" as="geometry"/>
                </mxCell>
                <mxCell id="1060" value="&lt;b&gt;&lt;font style=&quot;&quot; color=&quot;#43cdf0&quot;&gt;V-て&lt;/font&gt;&amp;nbsp;+ しまいました&lt;/b&gt;" style="shape=partialRectangle;html=1;whiteSpace=wrap;connectable=0;overflow=hidden;top=0;left=0;bottom=0;right=0;pointerEvents=1;fillColor=#050505;" parent="1059" vertex="1">
                    <mxGeometry width="186" height="37" as="geometry">
                        <mxRectangle width="186" height="37" as="alternateBounds"/>
                    </mxGeometry>
                </mxCell>
                <mxCell id="1061" value="&lt;b&gt;Forme&amp;nbsp;&lt;i&gt;done&lt;/i&gt;&lt;/b&gt;" style="shape=partialRectangle;html=1;whiteSpace=wrap;connectable=0;overflow=hidden;fillColor=#050505;top=0;left=0;bottom=0;right=0;pointerEvents=1;" parent="1059" vertex="1">
                    <mxGeometry x="186" width="211" height="37" as="geometry">
                        <mxRectangle width="211" height="37" as="alternateBounds"/>
                    </mxGeometry>
                </mxCell>
                <mxCell id="1503" value="" style="shape=partialRectangle;html=1;whiteSpace=wrap;connectable=0;overflow=hidden;fillColor=#050505;top=0;left=0;bottom=0;right=0;pointerEvents=1;" parent="1059" vertex="1">
                    <mxGeometry x="397" width="216" height="37" as="geometry">
                        <mxRectangle width="216" height="37" as="alternateBounds"/>
                    </mxGeometry>
                </mxCell>
                <mxCell id="1053" value="" style="shape=tableRow;horizontal=0;startSize=0;swimlaneHead=0;swimlaneBody=0;top=0;left=0;bottom=0;right=0;collapsible=0;dropTarget=0;fillColor=none;points=[[0,0.5],[1,0.5]];portConstraint=eastwest;" parent="1224" vertex="1">
                    <mxGeometry y="534" width="613" height="47" as="geometry"/>
                </mxCell>
                <mxCell id="1054" value="&lt;span style=&quot;color: rgb(240, 240, 240); font-family: Helvetica; font-size: 12px; font-style: normal; font-variant-ligatures: normal; font-variant-caps: normal; letter-spacing: normal; orphans: 2; text-align: center; text-indent: 0px; text-transform: none; widows: 2; word-spacing: 0px; -webkit-text-stroke-width: 0px; background-color: rgb(42, 37, 47); text-decoration-thickness: initial; text-decoration-style: initial; text-decoration-color: initial; float: none; display: inline !important;&quot;&gt;CODが が-&lt;b&gt;&lt;font color=&quot;#43cdf0&quot;&gt;V-て&lt;/font&gt;&lt;/b&gt;&amp;nbsp;ある&lt;br&gt;CODが&amp;nbsp;を-&lt;b&gt;&lt;font color=&quot;#43cdf0&quot;&gt;V-て&lt;/font&gt;&lt;/b&gt;&amp;nbsp;ある&lt;br&gt;&lt;/span&gt;" style="shape=partialRectangle;html=1;whiteSpace=wrap;connectable=0;overflow=hidden;fillColor=default;top=0;left=0;bottom=0;right=0;pointerEvents=1;fontStyle=1" parent="1053" vertex="1">
                    <mxGeometry width="186" height="47" as="geometry">
                        <mxRectangle width="186" height="47" as="alternateBounds"/>
                    </mxGeometry>
                </mxCell>
                <mxCell id="1055" value="&lt;b&gt;Forme &lt;i&gt;descriptive&lt;/i&gt;&lt;br&gt;Forme &lt;i&gt;descriptive avec dessein&lt;/i&gt;&lt;/b&gt;" style="shape=partialRectangle;html=1;whiteSpace=wrap;connectable=0;overflow=hidden;fillColor=default;top=0;left=0;bottom=0;right=0;pointerEvents=1;" parent="1053" vertex="1">
                    <mxGeometry x="186" width="211" height="47" as="geometry">
                        <mxRectangle width="211" height="47" as="alternateBounds"/>
                    </mxGeometry>
                </mxCell>
                <mxCell id="1500" value="" style="shape=partialRectangle;html=1;whiteSpace=wrap;connectable=0;overflow=hidden;fillColor=default;top=0;left=0;bottom=0;right=0;pointerEvents=1;" parent="1053" vertex="1">
                    <mxGeometry x="397" width="216" height="47" as="geometry">
                        <mxRectangle width="216" height="47" as="alternateBounds"/>
                    </mxGeometry>
                </mxCell>
                <mxCell id="1568" style="shape=tableRow;horizontal=0;startSize=0;swimlaneHead=0;swimlaneBody=0;top=0;left=0;bottom=0;right=0;collapsible=0;dropTarget=0;fillColor=none;points=[[0,0.5],[1,0.5]];portConstraint=eastwest;" parent="1224" vertex="1">
                    <mxGeometry y="581" width="613" height="74" as="geometry"/>
                </mxCell>
                <mxCell id="1569" value="V-て、V-て," style="shape=partialRectangle;html=1;whiteSpace=wrap;connectable=0;overflow=hidden;top=0;left=0;bottom=0;right=0;pointerEvents=1;fillStyle=auto;labelBackgroundColor=none;fillColor=#050505;" parent="1568" vertex="1">
                    <mxGeometry width="186" height="74" as="geometry">
                        <mxRectangle width="186" height="74" as="alternateBounds"/>
                    </mxGeometry>
                </mxCell>
                <mxCell id="1570" value="Forme &lt;i&gt;énumération&lt;/i&gt;&lt;br&gt;(ordonnée)" style="shape=partialRectangle;html=1;whiteSpace=wrap;connectable=0;overflow=hidden;fillColor=#050505;top=0;left=0;bottom=0;right=0;pointerEvents=1;fontStyle=1;gradientColor=none;" parent="1568" vertex="1">
                    <mxGeometry x="186" width="211" height="74" as="geometry">
                        <mxRectangle width="211" height="74" as="alternateBounds"/>
                    </mxGeometry>
                </mxCell>
                <mxCell id="1571" style="shape=partialRectangle;html=1;whiteSpace=wrap;connectable=0;overflow=hidden;fillColor=#050505;top=0;left=0;bottom=0;right=0;pointerEvents=1;gradientColor=none;" parent="1568" vertex="1">
                    <mxGeometry x="397" width="216" height="74" as="geometry">
                        <mxRectangle width="216" height="74" as="alternateBounds"/>
                    </mxGeometry>
                </mxCell>
                <mxCell id="1116" value="" style="shape=tableRow;horizontal=0;startSize=0;swimlaneHead=0;swimlaneBody=0;top=0;left=0;bottom=0;right=0;collapsible=0;dropTarget=0;fillColor=none;points=[[0,0.5],[1,0.5]];portConstraint=eastwest;" parent="1224" vertex="1">
                    <mxGeometry y="655" width="613" height="75" as="geometry"/>
                </mxCell>
                <mxCell id="1117" value="&lt;b&gt;&lt;font style=&quot;&quot; color=&quot;#43cdf0&quot;&gt;V-て&lt;/font&gt;、phrase&lt;/b&gt;" style="shape=partialRectangle;html=1;whiteSpace=wrap;connectable=0;overflow=hidden;fillColor=default;top=0;left=0;bottom=0;right=0;pointerEvents=1;fillStyle=dashed;labelBackgroundColor=none;gradientColor=default;" parent="1116" vertex="1">
                    <mxGeometry width="186" height="75" as="geometry">
                        <mxRectangle width="186" height="75" as="alternateBounds"/>
                    </mxGeometry>
                </mxCell>
                <mxCell id="1118" value="Pour exprimer le moyen" style="shape=partialRectangle;html=1;whiteSpace=wrap;connectable=0;overflow=hidden;fillColor=default;top=0;left=0;bottom=0;right=0;pointerEvents=1;fontStyle=1;gradientColor=default;" parent="1116" vertex="1">
                    <mxGeometry x="186" width="211" height="75" as="geometry">
                        <mxRectangle width="211" height="75" as="alternateBounds"/>
                    </mxGeometry>
                </mxCell>
                <mxCell id="1515" value="NHKを聞いて、日本語を勉強した。" style="shape=partialRectangle;html=1;whiteSpace=wrap;connectable=0;overflow=hidden;fillColor=default;top=0;left=0;bottom=0;right=0;pointerEvents=1;gradientColor=default;" parent="1116" vertex="1">
                    <mxGeometry x="397" width="216" height="75" as="geometry">
                        <mxRectangle width="216" height="75" as="alternateBounds"/>
                    </mxGeometry>
                </mxCell>
                <mxCell id="1323" value="ADJECTIF" style="shape=table;startSize=30;container=1;collapsible=0;childLayout=tableLayout;rounded=1;" parent="1" vertex="1">
                    <mxGeometry x="-2440" y="-1950" width="220" height="220" as="geometry"/>
                </mxCell>
                <mxCell id="1324" value="" style="shape=tableRow;horizontal=0;startSize=0;swimlaneHead=0;swimlaneBody=0;top=0;left=0;bottom=0;right=0;collapsible=0;dropTarget=0;fillColor=none;points=[[0,0.5],[1,0.5]];portConstraint=eastwest;rounded=1;" parent="1323" vertex="1">
                    <mxGeometry y="30" width="220" height="48" as="geometry"/>
                </mxCell>
                <mxCell id="1325" value="&lt;b&gt;ADJい NOM&lt;/b&gt;" style="shape=partialRectangle;html=1;whiteSpace=wrap;connectable=0;overflow=hidden;fillColor=#e3c800;top=0;left=0;bottom=0;right=0;pointerEvents=1;rounded=1;fontColor=#000000;strokeColor=#B09500;" parent="1324" vertex="1">
                    <mxGeometry width="110" height="48" as="geometry">
                        <mxRectangle width="110" height="48" as="alternateBounds"/>
                    </mxGeometry>
                </mxCell>
                <mxCell id="1326" value="&lt;b&gt;早い車&lt;/b&gt;" style="shape=partialRectangle;html=1;whiteSpace=wrap;connectable=0;overflow=hidden;fillColor=#e3c800;top=0;left=0;bottom=0;right=0;pointerEvents=1;rounded=1;fontColor=#000000;strokeColor=#B09500;" parent="1324" vertex="1">
                    <mxGeometry x="110" width="110" height="48" as="geometry">
                        <mxRectangle width="110" height="48" as="alternateBounds"/>
                    </mxGeometry>
                </mxCell>
                <mxCell id="1327" value="" style="shape=tableRow;horizontal=0;startSize=0;swimlaneHead=0;swimlaneBody=0;top=0;left=0;bottom=0;right=0;collapsible=0;dropTarget=0;fillColor=none;points=[[0,0.5],[1,0.5]];portConstraint=eastwest;rounded=1;" parent="1323" vertex="1">
                    <mxGeometry y="78" width="220" height="47" as="geometry"/>
                </mxCell>
                <mxCell id="1328" value="&lt;b&gt;ADJ-&lt;strike&gt;い&lt;/strike&gt;く VERBE&lt;/b&gt;" style="shape=partialRectangle;html=1;whiteSpace=wrap;connectable=0;overflow=hidden;fillColor=#e3c800;top=0;left=0;bottom=0;right=0;pointerEvents=1;rounded=1;fontColor=#000000;strokeColor=#B09500;" parent="1327" vertex="1">
                    <mxGeometry width="110" height="47" as="geometry">
                        <mxRectangle width="110" height="47" as="alternateBounds"/>
                    </mxGeometry>
                </mxCell>
                <mxCell id="1329" value="&lt;b&gt;早く立てます&lt;/b&gt;" style="shape=partialRectangle;html=1;whiteSpace=wrap;connectable=0;overflow=hidden;fillColor=#e3c800;top=0;left=0;bottom=0;right=0;pointerEvents=1;rounded=1;fontColor=#000000;strokeColor=#B09500;" parent="1327" vertex="1">
                    <mxGeometry x="110" width="110" height="47" as="geometry">
                        <mxRectangle width="110" height="47" as="alternateBounds"/>
                    </mxGeometry>
                </mxCell>
                <mxCell id="1330" value="" style="shape=tableRow;horizontal=0;startSize=0;swimlaneHead=0;swimlaneBody=0;top=0;left=0;bottom=0;right=0;collapsible=0;dropTarget=0;fillColor=none;points=[[0,0.5],[1,0.5]];portConstraint=eastwest;rounded=1;" parent="1323" vertex="1">
                    <mxGeometry y="125" width="220" height="48" as="geometry"/>
                </mxCell>
                <mxCell id="1331" value="&lt;b&gt;ADJな NOM&lt;/b&gt;" style="shape=partialRectangle;html=1;whiteSpace=wrap;connectable=0;overflow=hidden;fillColor=#d80073;top=0;left=0;bottom=0;right=0;pointerEvents=1;rounded=1;fontColor=#ffffff;strokeColor=#A50040;" parent="1330" vertex="1">
                    <mxGeometry width="110" height="48" as="geometry">
                        <mxRectangle width="110" height="48" as="alternateBounds"/>
                    </mxGeometry>
                </mxCell>
                <mxCell id="1332" value="&lt;b&gt;静かな部屋&lt;/b&gt;" style="shape=partialRectangle;html=1;whiteSpace=wrap;connectable=0;overflow=hidden;fillColor=#d80073;top=0;left=0;bottom=0;right=0;pointerEvents=1;rounded=1;fontColor=#ffffff;strokeColor=#A50040;" parent="1330" vertex="1">
                    <mxGeometry x="110" width="110" height="48" as="geometry">
                        <mxRectangle width="110" height="48" as="alternateBounds"/>
                    </mxGeometry>
                </mxCell>
                <mxCell id="1333" value="" style="shape=tableRow;horizontal=0;startSize=0;swimlaneHead=0;swimlaneBody=0;top=0;left=0;bottom=0;right=0;collapsible=0;dropTarget=0;fillColor=none;points=[[0,0.5],[1,0.5]];portConstraint=eastwest;rounded=1;" parent="1323" vertex="1">
                    <mxGeometry y="173" width="220" height="47" as="geometry"/>
                </mxCell>
                <mxCell id="1334" value="&lt;b&gt;ADJ&lt;strike&gt;な&lt;/strike&gt; に VERBE&lt;/b&gt;" style="shape=partialRectangle;html=1;whiteSpace=wrap;connectable=0;overflow=hidden;fillColor=#d80073;top=0;left=0;bottom=0;right=0;pointerEvents=1;rounded=1;fontColor=#ffffff;strokeColor=#A50040;" parent="1333" vertex="1">
                    <mxGeometry width="110" height="47" as="geometry">
                        <mxRectangle width="110" height="47" as="alternateBounds"/>
                    </mxGeometry>
                </mxCell>
                <mxCell id="1335" value="&lt;b&gt;静かにします&lt;/b&gt;" style="shape=partialRectangle;html=1;whiteSpace=wrap;connectable=0;overflow=hidden;fillColor=#d80073;top=0;left=0;bottom=0;right=0;pointerEvents=1;rounded=1;fontColor=#ffffff;strokeColor=#A50040;" parent="1333" vertex="1">
                    <mxGeometry x="110" width="110" height="47" as="geometry">
                        <mxRectangle width="110" height="47" as="alternateBounds"/>
                    </mxGeometry>
                </mxCell>
                <mxCell id="1336" value="&lt;b&gt;/!\ Exception /!\&lt;/b&gt;&lt;br&gt;いい本&lt;br&gt;よく寝ます" style="ellipse;whiteSpace=wrap;html=1;rounded=1;" parent="1" vertex="1">
                    <mxGeometry x="-2240" y="-1860" width="120" height="90" as="geometry"/>
                </mxCell>
                <mxCell id="1419" value="Forme connective あ" style="shape=table;startSize=30;container=1;collapsible=0;childLayout=tableLayout;rounded=1;swimlaneLine=1;shadow=0;fillColor=#a20025;fontColor=#ffffff;strokeColor=#6F0000;fontStyle=1" parent="1" vertex="1">
                    <mxGeometry x="-892.75" y="-2050" width="722.5" height="272" as="geometry"/>
                </mxCell>
                <mxCell id="1428" value="" style="shape=tableRow;horizontal=0;startSize=0;swimlaneHead=0;swimlaneBody=0;top=0;left=0;bottom=0;right=0;collapsible=0;dropTarget=0;fillColor=none;points=[[0,0.5],[1,0.5]];portConstraint=eastwest;" parent="1419" vertex="1">
                    <mxGeometry y="30" width="722.5" height="48" as="geometry"/>
                </mxCell>
                <mxCell id="1429" value="&lt;b&gt;&lt;font color=&quot;#cc0000&quot;&gt;V-あ&lt;/font&gt; + ない&lt;/b&gt;" style="shape=partialRectangle;html=1;whiteSpace=wrap;connectable=0;overflow=hidden;top=0;left=0;bottom=0;right=0;pointerEvents=1;" parent="1428" vertex="1">
                    <mxGeometry width="240" height="48" as="geometry">
                        <mxRectangle width="240" height="48" as="alternateBounds"/>
                    </mxGeometry>
                </mxCell>
                <mxCell id="1430" value="Forme &lt;i&gt;négative&lt;/i&gt;" style="shape=partialRectangle;html=1;whiteSpace=wrap;connectable=0;overflow=hidden;fillColor=#18141D;top=0;left=0;bottom=0;right=0;pointerEvents=1;fontStyle=1" parent="1428" vertex="1">
                    <mxGeometry x="240" width="242" height="48" as="geometry">
                        <mxRectangle width="242" height="48" as="alternateBounds"/>
                    </mxGeometry>
                </mxCell>
                <mxCell id="1431" value="" style="shape=partialRectangle;html=1;whiteSpace=wrap;connectable=0;overflow=hidden;fillColor=#18141D;top=0;left=0;bottom=0;right=0;pointerEvents=1;" parent="1428" vertex="1">
                    <mxGeometry x="482" width="241" height="48" as="geometry">
                        <mxRectangle width="241" height="48" as="alternateBounds"/>
                    </mxGeometry>
                </mxCell>
                <mxCell id="1424" value="" style="shape=tableRow;horizontal=0;startSize=0;swimlaneHead=0;swimlaneBody=0;top=0;left=0;bottom=0;right=0;collapsible=0;dropTarget=0;fillColor=none;points=[[0,0.5],[1,0.5]];portConstraint=eastwest;" parent="1419" vertex="1">
                    <mxGeometry y="78" width="722.5" height="49" as="geometry"/>
                </mxCell>
                <mxCell id="1425" value="&lt;b&gt;&lt;font color=&quot;#cc0000&quot;&gt;V-あ&lt;/font&gt; + ないでください&lt;br&gt;&lt;font color=&quot;#cc0000&quot;&gt;V-あ&lt;/font&gt;&lt;span style=&quot;white-space: pre;&quot;&gt;&#9;&lt;/span&gt;+ ないで&lt;/b&gt;" style="shape=partialRectangle;html=1;whiteSpace=wrap;connectable=0;overflow=hidden;fillColor=#0D0D0D;top=0;left=0;bottom=0;right=0;pointerEvents=1;strokeColor=default;gradientColor=none;" parent="1424" vertex="1">
                    <mxGeometry width="240" height="49" as="geometry">
                        <mxRectangle width="240" height="49" as="alternateBounds"/>
                    </mxGeometry>
                </mxCell>
                <mxCell id="1426" value="Forme &lt;i&gt;Ne pas SVP&lt;br&gt;&lt;/i&gt;Forme&amp;nbsp;&lt;i&gt;Ne pas STP&lt;/i&gt;&lt;i&gt;&lt;br&gt;&lt;/i&gt;" style="shape=partialRectangle;html=1;whiteSpace=wrap;connectable=0;overflow=hidden;fillColor=#0D0D0D;top=0;left=0;bottom=0;right=0;pointerEvents=1;fontStyle=1" parent="1424" vertex="1">
                    <mxGeometry x="240" width="242" height="49" as="geometry">
                        <mxRectangle width="242" height="49" as="alternateBounds"/>
                    </mxGeometry>
                </mxCell>
                <mxCell id="1427" value="" style="shape=partialRectangle;html=1;whiteSpace=wrap;connectable=0;overflow=hidden;fillColor=#0D0D0D;top=0;left=0;bottom=0;right=0;pointerEvents=1;" parent="1424" vertex="1">
                    <mxGeometry x="482" width="241" height="49" as="geometry">
                        <mxRectangle width="241" height="49" as="alternateBounds"/>
                    </mxGeometry>
                </mxCell>
                <mxCell id="1122" value="" style="shape=tableRow;horizontal=0;startSize=0;swimlaneHead=0;swimlaneBody=0;top=0;left=0;bottom=0;right=0;collapsible=0;dropTarget=0;fillColor=none;points=[[0,0.5],[1,0.5]];portConstraint=eastwest;" parent="1419" vertex="1">
                    <mxGeometry y="127" width="722.5" height="49" as="geometry"/>
                </mxCell>
                <mxCell id="1123" value="&lt;font color=&quot;#cc0000&quot;&gt;V-あ&lt;/font&gt; + な&lt;strike&gt;い&lt;/strike&gt;くてもいいです&lt;br&gt;&lt;font color=&quot;#cc0000&quot;&gt;V-あ &lt;/font&gt;+ な&lt;strike&gt;い&lt;/strike&gt;くてもいい" style="shape=partialRectangle;html=1;whiteSpace=wrap;connectable=0;overflow=hidden;fillColor=default;top=0;left=0;bottom=0;right=0;pointerEvents=1;fontStyle=1" parent="1122" vertex="1">
                    <mxGeometry width="240" height="49" as="geometry">
                        <mxRectangle width="240" height="49" as="alternateBounds"/>
                    </mxGeometry>
                </mxCell>
                <mxCell id="1124" value="&lt;b&gt;Forme &lt;i&gt;Pas besoin de&lt;/i&gt;&lt;/b&gt;" style="shape=partialRectangle;html=1;whiteSpace=wrap;connectable=0;overflow=hidden;fillColor=#18141D;top=0;left=0;bottom=0;right=0;pointerEvents=1;" parent="1122" vertex="1">
                    <mxGeometry x="240" width="242" height="49" as="geometry">
                        <mxRectangle width="242" height="49" as="alternateBounds"/>
                    </mxGeometry>
                </mxCell>
                <mxCell id="1518" value="" style="shape=partialRectangle;html=1;whiteSpace=wrap;connectable=0;overflow=hidden;fillColor=#18141D;top=0;left=0;bottom=0;right=0;pointerEvents=1;" parent="1122" vertex="1">
                    <mxGeometry x="482" width="241" height="49" as="geometry">
                        <mxRectangle width="241" height="49" as="alternateBounds"/>
                    </mxGeometry>
                </mxCell>
                <mxCell id="1420" value="" style="shape=tableRow;horizontal=0;startSize=0;swimlaneHead=0;swimlaneBody=0;top=0;left=0;bottom=0;right=0;collapsible=0;dropTarget=0;fillColor=#0D0D0D;points=[[0,0.5],[1,0.5]];portConstraint=eastwest;" parent="1419" vertex="1">
                    <mxGeometry y="176" width="722.5" height="48" as="geometry"/>
                </mxCell>
                <mxCell id="1421" value="&lt;b&gt;&lt;font color=&quot;#cc0000&quot;&gt;V-あ&lt;/font&gt; + なければなりません&lt;br&gt;&lt;font color=&quot;#cc0000&quot;&gt;V-あ&lt;/font&gt; + なければない&lt;/b&gt;" style="shape=partialRectangle;html=1;whiteSpace=wrap;connectable=0;overflow=hidden;fillColor=#0D0D0D;top=0;left=0;bottom=0;right=0;pointerEvents=1;" parent="1420" vertex="1">
                    <mxGeometry width="240" height="48" as="geometry">
                        <mxRectangle width="240" height="48" as="alternateBounds"/>
                    </mxGeometry>
                </mxCell>
                <mxCell id="1422" value="&lt;b&gt;Forme &lt;i&gt;devoir&lt;/i&gt;&lt;/b&gt;" style="shape=partialRectangle;html=1;whiteSpace=wrap;connectable=0;overflow=hidden;fillColor=none;top=0;left=0;bottom=0;right=0;pointerEvents=1;" parent="1420" vertex="1">
                    <mxGeometry x="240" width="242" height="48" as="geometry">
                        <mxRectangle width="242" height="48" as="alternateBounds"/>
                    </mxGeometry>
                </mxCell>
                <mxCell id="1423" value="" style="shape=partialRectangle;html=1;whiteSpace=wrap;connectable=0;overflow=hidden;fillColor=none;top=0;left=0;bottom=0;right=0;pointerEvents=1;" parent="1420" vertex="1">
                    <mxGeometry x="482" width="241" height="48" as="geometry">
                        <mxRectangle width="241" height="48" as="alternateBounds"/>
                    </mxGeometry>
                </mxCell>
                <mxCell id="1560" style="shape=tableRow;horizontal=0;startSize=0;swimlaneHead=0;swimlaneBody=0;top=0;left=0;bottom=0;right=0;collapsible=0;dropTarget=0;fillColor=#0D0D0D;points=[[0,0.5],[1,0.5]];portConstraint=eastwest;fontStyle=1" parent="1419" vertex="1">
                    <mxGeometry y="224" width="722.5" height="48" as="geometry"/>
                </mxCell>
                <mxCell id="1561" value="&lt;b&gt;&lt;font style=&quot;&quot; color=&quot;#cc0000&quot;&gt;V-あ&lt;/font&gt;&amp;nbsp;+ ない ように&amp;nbsp;&lt;/b&gt;" style="shape=partialRectangle;html=1;whiteSpace=wrap;connectable=0;overflow=hidden;fillColor=#0D0D0D;top=0;left=0;bottom=0;right=0;pointerEvents=1;" parent="1560" vertex="1">
                    <mxGeometry width="240" height="48" as="geometry">
                        <mxRectangle width="240" height="48" as="alternateBounds"/>
                    </mxGeometry>
                </mxCell>
                <mxCell id="1562" value="&lt;b&gt;Forme &lt;i&gt;éviter de &lt;/i&gt;(ordre)&lt;/b&gt;" style="shape=partialRectangle;html=1;whiteSpace=wrap;connectable=0;overflow=hidden;fillColor=none;top=0;left=0;bottom=0;right=0;pointerEvents=1;" parent="1560" vertex="1">
                    <mxGeometry x="240" width="242" height="48" as="geometry">
                        <mxRectangle width="242" height="48" as="alternateBounds"/>
                    </mxGeometry>
                </mxCell>
                <mxCell id="1563" style="shape=partialRectangle;html=1;whiteSpace=wrap;connectable=0;overflow=hidden;fillColor=none;top=0;left=0;bottom=0;right=0;pointerEvents=1;" parent="1560" vertex="1">
                    <mxGeometry x="482" width="241" height="48" as="geometry">
                        <mxRectangle width="241" height="48" as="alternateBounds"/>
                    </mxGeometry>
                </mxCell>
                <mxCell id="1519" value="Forme nominalisée V-い (racine)" style="shape=table;startSize=30;container=1;collapsible=0;childLayout=tableLayout;fontStyle=1;labelBackgroundColor=none;fillColor=#e3c800;fontColor=#000000;strokeColor=#B09500;rounded=1;" parent="1" vertex="1">
                    <mxGeometry x="-827" y="-1740" width="630" height="330" as="geometry"/>
                </mxCell>
                <mxCell id="1520" value="" style="shape=tableRow;horizontal=0;startSize=0;swimlaneHead=0;swimlaneBody=0;top=0;left=0;bottom=0;right=0;collapsible=0;dropTarget=0;fillColor=none;points=[[0,0.5],[1,0.5]];portConstraint=eastwest;" parent="1519" vertex="1">
                    <mxGeometry y="30" width="630" height="30" as="geometry"/>
                </mxCell>
                <mxCell id="1521" value="&lt;font style=&quot;&quot; color=&quot;#cccc00&quot;&gt;V-い&lt;/font&gt;&amp;nbsp;+ ます&lt;br&gt;&lt;span style=&quot;color: rgb(204, 204, 0);&quot;&gt;V-い &lt;/span&gt;&lt;font color=&quot;#fcfcfc&quot;&gt;+&amp;nbsp;&lt;/font&gt;ません" style="shape=partialRectangle;html=1;whiteSpace=wrap;connectable=0;overflow=hidden;fillColor=#18141D;top=0;left=0;bottom=0;right=0;pointerEvents=1;fontStyle=1" parent="1520" vertex="1">
                    <mxGeometry width="210" height="30" as="geometry">
                        <mxRectangle width="210" height="30" as="alternateBounds"/>
                    </mxGeometry>
                </mxCell>
                <mxCell id="1522" value="Forme &lt;i&gt;polie&lt;/i&gt;" style="shape=partialRectangle;html=1;whiteSpace=wrap;connectable=0;overflow=hidden;fillColor=#18141D;top=0;left=0;bottom=0;right=0;pointerEvents=1;fontStyle=1" parent="1520" vertex="1">
                    <mxGeometry x="210" width="209" height="30" as="geometry">
                        <mxRectangle width="209" height="30" as="alternateBounds"/>
                    </mxGeometry>
                </mxCell>
                <mxCell id="1523" value="" style="shape=partialRectangle;html=1;whiteSpace=wrap;connectable=0;overflow=hidden;fillColor=#18141D;top=0;left=0;bottom=0;right=0;pointerEvents=1;" parent="1520" vertex="1">
                    <mxGeometry x="419" width="211" height="30" as="geometry">
                        <mxRectangle width="211" height="30" as="alternateBounds"/>
                    </mxGeometry>
                </mxCell>
                <mxCell id="1524" value="" style="shape=tableRow;horizontal=0;startSize=0;swimlaneHead=0;swimlaneBody=0;top=0;left=0;bottom=0;right=0;collapsible=0;dropTarget=0;fillColor=none;points=[[0,0.5],[1,0.5]];portConstraint=eastwest;" parent="1519" vertex="1">
                    <mxGeometry y="60" width="630" height="30" as="geometry"/>
                </mxCell>
                <mxCell id="1525" value="&lt;span style=&quot;color: rgb(204, 204, 0);&quot;&gt;V-い&lt;/span&gt;&amp;nbsp;+ 初める" style="shape=partialRectangle;html=1;whiteSpace=wrap;connectable=0;overflow=hidden;fillColor=#050505;top=0;left=0;bottom=0;right=0;pointerEvents=1;fontStyle=1" parent="1524" vertex="1">
                    <mxGeometry width="210" height="30" as="geometry">
                        <mxRectangle width="210" height="30" as="alternateBounds"/>
                    </mxGeometry>
                </mxCell>
                <mxCell id="1526" value="Forme &lt;i&gt;1ère fois&lt;/i&gt;" style="shape=partialRectangle;html=1;whiteSpace=wrap;connectable=0;overflow=hidden;fillColor=#050505;top=0;left=0;bottom=0;right=0;pointerEvents=1;fontStyle=1" parent="1524" vertex="1">
                    <mxGeometry x="210" width="209" height="30" as="geometry">
                        <mxRectangle width="209" height="30" as="alternateBounds"/>
                    </mxGeometry>
                </mxCell>
                <mxCell id="1527" value="" style="shape=partialRectangle;html=1;whiteSpace=wrap;connectable=0;overflow=hidden;fillColor=#050505;top=0;left=0;bottom=0;right=0;pointerEvents=1;" parent="1524" vertex="1">
                    <mxGeometry x="419" width="211" height="30" as="geometry">
                        <mxRectangle width="211" height="30" as="alternateBounds"/>
                    </mxGeometry>
                </mxCell>
                <mxCell id="1528" value="" style="shape=tableRow;horizontal=0;startSize=0;swimlaneHead=0;swimlaneBody=0;top=0;left=0;bottom=0;right=0;collapsible=0;dropTarget=0;fillColor=none;points=[[0,0.5],[1,0.5]];portConstraint=eastwest;" parent="1519" vertex="1">
                    <mxGeometry y="90" width="630" height="30" as="geometry"/>
                </mxCell>
                <mxCell id="1529" value="&lt;span style=&quot;color: rgb(204, 204, 0);&quot;&gt;V-い&lt;/span&gt;&amp;nbsp;+ ましょう" style="shape=partialRectangle;html=1;whiteSpace=wrap;connectable=0;overflow=hidden;fillColor=default;top=0;left=0;bottom=0;right=0;pointerEvents=1;fontStyle=1" parent="1528" vertex="1">
                    <mxGeometry width="210" height="30" as="geometry">
                        <mxRectangle width="210" height="30" as="alternateBounds"/>
                    </mxGeometry>
                </mxCell>
                <mxCell id="1530" value="Forme &lt;i&gt;Let's&lt;/i&gt;" style="shape=partialRectangle;html=1;whiteSpace=wrap;connectable=0;overflow=hidden;fillColor=default;top=0;left=0;bottom=0;right=0;pointerEvents=1;fontStyle=1" parent="1528" vertex="1">
                    <mxGeometry x="210" width="209" height="30" as="geometry">
                        <mxRectangle width="209" height="30" as="alternateBounds"/>
                    </mxGeometry>
                </mxCell>
                <mxCell id="1531" value="" style="shape=partialRectangle;html=1;whiteSpace=wrap;connectable=0;overflow=hidden;fillColor=default;top=0;left=0;bottom=0;right=0;pointerEvents=1;" parent="1528" vertex="1">
                    <mxGeometry x="419" width="211" height="30" as="geometry">
                        <mxRectangle width="211" height="30" as="alternateBounds"/>
                    </mxGeometry>
                </mxCell>
                <mxCell id="1532" value="" style="shape=tableRow;horizontal=0;startSize=0;swimlaneHead=0;swimlaneBody=0;top=0;left=0;bottom=0;right=0;collapsible=0;dropTarget=0;fillColor=none;points=[[0,0.5],[1,0.5]];portConstraint=eastwest;" parent="1519" vertex="1">
                    <mxGeometry y="120" width="630" height="30" as="geometry"/>
                </mxCell>
                <mxCell id="1533" value="&lt;span style=&quot;color: rgb(204, 204, 0);&quot;&gt;V-い &lt;/span&gt;&lt;font color=&quot;#fcfcfc&quot;&gt;+&lt;/font&gt;&lt;span style=&quot;color: rgb(204, 204, 0);&quot;&gt;&amp;nbsp;&lt;/span&gt;ましょうか" style="shape=partialRectangle;html=1;whiteSpace=wrap;connectable=0;overflow=hidden;fillColor=#050505;top=0;left=0;bottom=0;right=0;pointerEvents=1;fontStyle=1" parent="1532" vertex="1">
                    <mxGeometry width="210" height="30" as="geometry">
                        <mxRectangle width="210" height="30" as="alternateBounds"/>
                    </mxGeometry>
                </mxCell>
                <mxCell id="1534" value="Forme &lt;i&gt;Voulez-vous que je ?&lt;/i&gt;" style="shape=partialRectangle;html=1;whiteSpace=wrap;connectable=0;overflow=hidden;fillColor=#050505;top=0;left=0;bottom=0;right=0;pointerEvents=1;fontStyle=1" parent="1532" vertex="1">
                    <mxGeometry x="210" width="209" height="30" as="geometry">
                        <mxRectangle width="209" height="30" as="alternateBounds"/>
                    </mxGeometry>
                </mxCell>
                <mxCell id="1535" value="" style="shape=partialRectangle;html=1;whiteSpace=wrap;connectable=0;overflow=hidden;fillColor=#050505;top=0;left=0;bottom=0;right=0;pointerEvents=1;" parent="1532" vertex="1">
                    <mxGeometry x="419" width="211" height="30" as="geometry">
                        <mxRectangle width="211" height="30" as="alternateBounds"/>
                    </mxGeometry>
                </mxCell>
                <mxCell id="1536" value="" style="shape=tableRow;horizontal=0;startSize=0;swimlaneHead=0;swimlaneBody=0;top=0;left=0;bottom=0;right=0;collapsible=0;dropTarget=0;fillColor=none;points=[[0,0.5],[1,0.5]];portConstraint=eastwest;" parent="1519" vertex="1">
                    <mxGeometry y="150" width="630" height="30" as="geometry"/>
                </mxCell>
                <mxCell id="1537" value="&lt;span style=&quot;color: rgb(204, 204, 0);&quot;&gt;V-い&lt;/span&gt;&amp;nbsp;+ ませんか" style="shape=partialRectangle;html=1;whiteSpace=wrap;connectable=0;overflow=hidden;fillColor=default;top=0;left=0;bottom=0;right=0;pointerEvents=1;fontStyle=1" parent="1536" vertex="1">
                    <mxGeometry width="210" height="30" as="geometry">
                        <mxRectangle width="210" height="30" as="alternateBounds"/>
                    </mxGeometry>
                </mxCell>
                <mxCell id="1538" value="Forme &lt;i&gt;Invitation&lt;/i&gt;" style="shape=partialRectangle;html=1;whiteSpace=wrap;connectable=0;overflow=hidden;fillColor=default;top=0;left=0;bottom=0;right=0;pointerEvents=1;fontStyle=1" parent="1536" vertex="1">
                    <mxGeometry x="210" width="209" height="30" as="geometry">
                        <mxRectangle width="209" height="30" as="alternateBounds"/>
                    </mxGeometry>
                </mxCell>
                <mxCell id="1539" value="" style="shape=partialRectangle;html=1;whiteSpace=wrap;connectable=0;overflow=hidden;fillColor=default;top=0;left=0;bottom=0;right=0;pointerEvents=1;" parent="1536" vertex="1">
                    <mxGeometry x="419" width="211" height="30" as="geometry">
                        <mxRectangle width="211" height="30" as="alternateBounds"/>
                    </mxGeometry>
                </mxCell>
                <mxCell id="1540" value="" style="shape=tableRow;horizontal=0;startSize=0;swimlaneHead=0;swimlaneBody=0;top=0;left=0;bottom=0;right=0;collapsible=0;dropTarget=0;fillColor=none;points=[[0,0.5],[1,0.5]];portConstraint=eastwest;" parent="1519" vertex="1">
                    <mxGeometry y="180" width="630" height="30" as="geometry"/>
                </mxCell>
                <mxCell id="1541" value="&lt;span style=&quot;color: rgb(204, 204, 0);&quot;&gt;V-い&lt;/span&gt;&amp;nbsp;+ やすいです&lt;br&gt;&lt;span style=&quot;color: rgb(204, 204, 0);&quot;&gt;V-い&lt;/span&gt;&amp;nbsp;+ にくいです" style="shape=partialRectangle;html=1;whiteSpace=wrap;connectable=0;overflow=hidden;fillColor=#050505;top=0;left=0;bottom=0;right=0;pointerEvents=1;fontStyle=1" parent="1540" vertex="1">
                    <mxGeometry width="210" height="30" as="geometry">
                        <mxRectangle width="210" height="30" as="alternateBounds"/>
                    </mxGeometry>
                </mxCell>
                <mxCell id="1542" value="Forme &lt;i&gt;facile&lt;/i&gt;&lt;br&gt;Forme &lt;i&gt;difficile&lt;/i&gt;" style="shape=partialRectangle;html=1;whiteSpace=wrap;connectable=0;overflow=hidden;fillColor=#050505;top=0;left=0;bottom=0;right=0;pointerEvents=1;fontStyle=1" parent="1540" vertex="1">
                    <mxGeometry x="210" width="209" height="30" as="geometry">
                        <mxRectangle width="209" height="30" as="alternateBounds"/>
                    </mxGeometry>
                </mxCell>
                <mxCell id="1543" value="" style="shape=partialRectangle;html=1;whiteSpace=wrap;connectable=0;overflow=hidden;fillColor=#050505;top=0;left=0;bottom=0;right=0;pointerEvents=1;" parent="1540" vertex="1">
                    <mxGeometry x="419" width="211" height="30" as="geometry">
                        <mxRectangle width="211" height="30" as="alternateBounds"/>
                    </mxGeometry>
                </mxCell>
                <mxCell id="1544" value="" style="shape=tableRow;horizontal=0;startSize=0;swimlaneHead=0;swimlaneBody=0;top=0;left=0;bottom=0;right=0;collapsible=0;dropTarget=0;fillColor=none;points=[[0,0.5],[1,0.5]];portConstraint=eastwest;" parent="1519" vertex="1">
                    <mxGeometry y="210" width="630" height="30" as="geometry"/>
                </mxCell>
                <mxCell id="1545" value="&lt;span style=&quot;color: rgb(204, 204, 0);&quot;&gt;V-い&lt;/span&gt;&amp;nbsp;+ すぎる&lt;br&gt;&amp;nbsp;ADJ + すぎる" style="shape=partialRectangle;html=1;whiteSpace=wrap;connectable=0;overflow=hidden;fillColor=default;top=0;left=0;bottom=0;right=0;pointerEvents=1;fontStyle=1" parent="1544" vertex="1">
                    <mxGeometry width="210" height="30" as="geometry">
                        <mxRectangle width="210" height="30" as="alternateBounds"/>
                    </mxGeometry>
                </mxCell>
                <mxCell id="1546" value="Forme &lt;i&gt;Trop&lt;/i&gt;" style="shape=partialRectangle;html=1;whiteSpace=wrap;connectable=0;overflow=hidden;fillColor=default;top=0;left=0;bottom=0;right=0;pointerEvents=1;fontStyle=1" parent="1544" vertex="1">
                    <mxGeometry x="210" width="209" height="30" as="geometry">
                        <mxRectangle width="209" height="30" as="alternateBounds"/>
                    </mxGeometry>
                </mxCell>
                <mxCell id="1547" value="" style="shape=partialRectangle;html=1;whiteSpace=wrap;connectable=0;overflow=hidden;fillColor=default;top=0;left=0;bottom=0;right=0;pointerEvents=1;" parent="1544" vertex="1">
                    <mxGeometry x="419" width="211" height="30" as="geometry">
                        <mxRectangle width="211" height="30" as="alternateBounds"/>
                    </mxGeometry>
                </mxCell>
                <mxCell id="1548" value="" style="shape=tableRow;horizontal=0;startSize=0;swimlaneHead=0;swimlaneBody=0;top=0;left=0;bottom=0;right=0;collapsible=0;dropTarget=0;fillColor=none;points=[[0,0.5],[1,0.5]];portConstraint=eastwest;" parent="1519" vertex="1">
                    <mxGeometry y="240" width="630" height="30" as="geometry"/>
                </mxCell>
                <mxCell id="1549" value="&lt;span style=&quot;color: rgb(204, 204, 0);&quot;&gt;V-い&lt;/span&gt;&amp;nbsp;+ たいです" style="shape=partialRectangle;html=1;whiteSpace=wrap;connectable=0;overflow=hidden;fillColor=#050505;top=0;left=0;bottom=0;right=0;pointerEvents=1;fontStyle=1" parent="1548" vertex="1">
                    <mxGeometry width="210" height="30" as="geometry">
                        <mxRectangle width="210" height="30" as="alternateBounds"/>
                    </mxGeometry>
                </mxCell>
                <mxCell id="1550" value="Forme &lt;i&gt;vouloir&lt;/i&gt;" style="shape=partialRectangle;html=1;whiteSpace=wrap;connectable=0;overflow=hidden;fillColor=#050505;top=0;left=0;bottom=0;right=0;pointerEvents=1;fontStyle=1" parent="1548" vertex="1">
                    <mxGeometry x="210" width="209" height="30" as="geometry">
                        <mxRectangle width="209" height="30" as="alternateBounds"/>
                    </mxGeometry>
                </mxCell>
                <mxCell id="1551" value="" style="shape=partialRectangle;html=1;whiteSpace=wrap;connectable=0;overflow=hidden;fillColor=#050505;top=0;left=0;bottom=0;right=0;pointerEvents=1;" parent="1548" vertex="1">
                    <mxGeometry x="419" width="211" height="30" as="geometry">
                        <mxRectangle width="211" height="30" as="alternateBounds"/>
                    </mxGeometry>
                </mxCell>
                <mxCell id="1552" value="" style="shape=tableRow;horizontal=0;startSize=0;swimlaneHead=0;swimlaneBody=0;top=0;left=0;bottom=0;right=0;collapsible=0;dropTarget=0;fillColor=none;points=[[0,0.5],[1,0.5]];portConstraint=eastwest;fontStyle=0" parent="1519" vertex="1">
                    <mxGeometry y="270" width="630" height="30" as="geometry"/>
                </mxCell>
                <mxCell id="1553" value="&lt;span style=&quot;color: rgb(204, 204, 0);&quot;&gt;V-い&lt;/span&gt;&amp;nbsp;+ ながら" style="shape=partialRectangle;html=1;whiteSpace=wrap;connectable=0;overflow=hidden;fillColor=default;top=0;left=0;bottom=0;right=0;pointerEvents=1;fontStyle=1" parent="1552" vertex="1">
                    <mxGeometry width="210" height="30" as="geometry">
                        <mxRectangle width="210" height="30" as="alternateBounds"/>
                    </mxGeometry>
                </mxCell>
                <mxCell id="1554" value="Forme &lt;i&gt;En même temps&lt;/i&gt;" style="shape=partialRectangle;html=1;whiteSpace=wrap;connectable=0;overflow=hidden;fillColor=default;top=0;left=0;bottom=0;right=0;pointerEvents=1;fontStyle=1" parent="1552" vertex="1">
                    <mxGeometry x="210" width="209" height="30" as="geometry">
                        <mxRectangle width="209" height="30" as="alternateBounds"/>
                    </mxGeometry>
                </mxCell>
                <mxCell id="1555" value="" style="shape=partialRectangle;html=1;whiteSpace=wrap;connectable=0;overflow=hidden;fillColor=default;top=0;left=0;bottom=0;right=0;pointerEvents=1;" parent="1552" vertex="1">
                    <mxGeometry x="419" width="211" height="30" as="geometry">
                        <mxRectangle width="211" height="30" as="alternateBounds"/>
                    </mxGeometry>
                </mxCell>
                <mxCell id="1564" style="shape=tableRow;horizontal=0;startSize=0;swimlaneHead=0;swimlaneBody=0;top=0;left=0;bottom=0;right=0;collapsible=0;dropTarget=0;fillColor=none;points=[[0,0.5],[1,0.5]];portConstraint=eastwest;fontStyle=0" parent="1519" vertex="1">
                    <mxGeometry y="300" width="630" height="30" as="geometry"/>
                </mxCell>
                <mxCell id="1565" value="&lt;span style=&quot;color: rgb(204, 204, 0);&quot;&gt;V-い &lt;/span&gt;&lt;font color=&quot;#fcfcfc&quot;&gt;+&amp;nbsp;&lt;/font&gt;&lt;font style=&quot;&quot; color=&quot;#fcfcfc&quot;&gt;に&lt;/font&gt; 行く" style="shape=partialRectangle;html=1;whiteSpace=wrap;connectable=0;overflow=hidden;fillColor=default;top=0;left=0;bottom=0;right=0;pointerEvents=1;fontStyle=1" parent="1564" vertex="1">
                    <mxGeometry width="210" height="30" as="geometry">
                        <mxRectangle width="210" height="30" as="alternateBounds"/>
                    </mxGeometry>
                </mxCell>
                <mxCell id="1566" value="Forme &lt;i&gt;aller pour&lt;/i&gt;" style="shape=partialRectangle;html=1;whiteSpace=wrap;connectable=0;overflow=hidden;fillColor=default;top=0;left=0;bottom=0;right=0;pointerEvents=1;fontStyle=1" parent="1564" vertex="1">
                    <mxGeometry x="210" width="209" height="30" as="geometry">
                        <mxRectangle width="209" height="30" as="alternateBounds"/>
                    </mxGeometry>
                </mxCell>
                <mxCell id="1567" style="shape=partialRectangle;html=1;whiteSpace=wrap;connectable=0;overflow=hidden;fillColor=default;top=0;left=0;bottom=0;right=0;pointerEvents=1;" parent="1564" vertex="1">
                    <mxGeometry x="419" width="211" height="30" as="geometry">
                        <mxRectangle width="211" height="30" as="alternateBounds"/>
                    </mxGeometry>
                </mxCell>
                <mxCell id="1577" value="Début de phrase" style="ellipse;whiteSpace=wrap;html=1;" parent="1" vertex="1">
                    <mxGeometry x="210" y="-2320" width="180" height="80" as="geometry"/>
                </mxCell>
                <mxCell id="1578" value="quand" style="shape=table;startSize=30;container=1;collapsible=0;childLayout=tableLayout;rounded=1;shadow=0;swimlaneFillColor=default;fillStyle=auto;swimlaneLine=1;gradientDirection=south;labelBorderColor=none;fontStyle=1;" parent="1" vertex="1">
                    <mxGeometry x="390" y="-2210" width="150" height="210" as="geometry"/>
                </mxCell>
                <mxCell id="1579" value="" style="shape=tableRow;horizontal=0;startSize=0;swimlaneHead=0;swimlaneBody=0;top=0;left=0;bottom=0;right=0;collapsible=0;dropTarget=0;fillColor=none;points=[[0,0.5],[1,0.5]];portConstraint=eastwest;rounded=0;shadow=0;sketch=0;strokeColor=default;" parent="1578" vertex="1">
                    <mxGeometry y="30" width="150" height="31" as="geometry"/>
                </mxCell>
                <mxCell id="1580" value="&lt;div style=&quot;&quot;&gt;&lt;b style=&quot;background-color: initial;&quot;&gt;NOMの&lt;font color=&quot;#fcfcfc&quot;&gt;&amp;nbsp;&lt;/font&gt;&lt;span style=&quot;color: rgb(252, 252, 252); white-space: pre;&quot;&gt;&#9;&lt;span style=&quot;white-space: pre;&quot;&gt;&#9;&lt;/span&gt;&lt;span style=&quot;white-space: pre;&quot;&gt;&#9;&lt;/span&gt;&lt;/span&gt;&lt;span style=&quot;white-space: pre;&quot;&gt;&lt;span style=&quot;white-space: pre;&quot;&gt;&lt;font color=&quot;#000000&quot;&gt;とき&lt;/font&gt;&lt;/span&gt;&lt;/span&gt;&lt;/b&gt;&lt;/div&gt;" style="shape=partialRectangle;html=1;whiteSpace=wrap;connectable=0;overflow=hidden;fillColor=#1ba1e2;top=0;left=0;bottom=0;right=0;pointerEvents=1;rounded=0;shadow=0;sketch=0;strokeColor=#006EAF;fontColor=#ffffff;align=right;" parent="1579" vertex="1">
                    <mxGeometry width="150" height="31" as="geometry">
                        <mxRectangle width="150" height="31" as="alternateBounds"/>
                    </mxGeometry>
                </mxCell>
                <mxCell id="1581" value="" style="shape=tableRow;horizontal=0;startSize=0;swimlaneHead=0;swimlaneBody=0;top=0;left=0;bottom=0;right=0;collapsible=0;dropTarget=0;fillColor=none;points=[[0,0.5],[1,0.5]];portConstraint=eastwest;rounded=0;shadow=0;sketch=0;strokeColor=default;" parent="1578" vertex="1">
                    <mxGeometry y="61" width="150" height="76" as="geometry"/>
                </mxCell>
                <mxCell id="1582" value="&lt;div style=&quot;&quot;&gt;&lt;/div&gt;&lt;b&gt;VERBE-う&lt;span style=&quot;white-space: pre;&quot;&gt;&#9;&lt;span style=&quot;white-space: pre;&quot;&gt;&#9;&lt;/span&gt;&lt;/span&gt;&amp;nbsp;&lt;/b&gt;&lt;b style=&quot;background-color: initial;&quot;&gt;&lt;span style=&quot;&quot;&gt;&lt;font color=&quot;#000000&quot;&gt;&amp;nbsp;とき&lt;/font&gt;&lt;/span&gt;&lt;/b&gt;&lt;b&gt;&lt;div style=&quot;&quot;&gt;&lt;div style=&quot;font-weight: 400;&quot;&gt;&lt;span style=&quot;background-color: initial;&quot;&gt;&lt;b&gt;VERBE-ない&lt;span style=&quot;&quot;&gt;&amp;nbsp;&lt;/span&gt;&lt;span style=&quot;&quot;&gt;&#9;&lt;span style=&quot;white-space: pre;&quot;&gt;&#9;&lt;span style=&quot;white-space: pre;&quot;&gt;&#9;&lt;/span&gt;&lt;/span&gt;&lt;span style=&quot;&quot;&gt;&amp;nbsp;&lt;/span&gt;&lt;/span&gt;&amp;nbsp;&lt;/b&gt;&lt;/span&gt;&lt;b style=&quot;background-color: initial;&quot;&gt;&lt;font color=&quot;#000000&quot;&gt;とき&lt;/font&gt;&lt;/b&gt;&lt;/div&gt;&lt;b&gt;&lt;div&gt;&lt;/div&gt;&lt;/b&gt;&lt;div&gt;&lt;div style=&quot;font-weight: 400;&quot;&gt;&lt;span style=&quot;background-color: initial;&quot;&gt;&lt;b&gt;VERBE-た&lt;span style=&quot;&quot;&gt;&amp;nbsp;&lt;span style=&quot;white-space: pre;&quot;&gt;&#9;&lt;span style=&quot;white-space: pre;&quot;&gt;&#9;&lt;/span&gt;&lt;/span&gt;&lt;/span&gt;&lt;span style=&quot;&quot;&gt;&#9;&lt;span style=&quot;&quot;&gt;&#9;&lt;/span&gt;&lt;/span&gt;&amp;nbsp;&lt;/b&gt;&lt;/span&gt;&lt;b style=&quot;background-color: initial;&quot;&gt;&lt;font color=&quot;#000000&quot;&gt;とき&lt;/font&gt;&lt;/b&gt;&lt;/div&gt;&lt;b&gt;&lt;div&gt;&lt;/div&gt;&lt;/b&gt;&lt;div&gt;&lt;div style=&quot;font-weight: 400;&quot;&gt;&lt;span style=&quot;background-color: initial;&quot;&gt;&lt;b&gt;VERBE-て いる&lt;span style=&quot;&quot;&gt;&amp;nbsp;&lt;span style=&quot;white-space: pre;&quot;&gt;&#9;&lt;/span&gt;&lt;/span&gt;&lt;span style=&quot;&quot;&gt;&#9;&lt;span style=&quot;&quot;&gt;&#9;&lt;/span&gt;&lt;/span&gt;&amp;nbsp;&lt;/b&gt;&lt;/span&gt;&lt;b style=&quot;background-color: initial;&quot;&gt;&lt;font color=&quot;#000000&quot;&gt;とき&lt;/font&gt;&lt;/b&gt;&lt;/div&gt;&lt;/div&gt;&lt;/div&gt;&lt;/div&gt;&lt;/b&gt;" style="shape=partialRectangle;html=1;whiteSpace=wrap;connectable=0;overflow=hidden;fillColor=#6d8764;top=0;left=0;bottom=0;right=0;pointerEvents=1;rounded=0;shadow=0;sketch=0;strokeColor=#3A5431;fontColor=#ffffff;align=right;" parent="1581" vertex="1">
                    <mxGeometry width="150" height="76" as="geometry">
                        <mxRectangle width="150" height="76" as="alternateBounds"/>
                    </mxGeometry>
                </mxCell>
                <mxCell id="1583" value="" style="shape=tableRow;horizontal=0;startSize=0;swimlaneHead=0;swimlaneBody=0;top=0;left=0;bottom=0;right=0;collapsible=0;dropTarget=0;fillColor=none;points=[[0,0.5],[1,0.5]];portConstraint=eastwest;rounded=0;shadow=0;sketch=0;strokeColor=default;" parent="1578" vertex="1">
                    <mxGeometry y="137" width="150" height="37" as="geometry"/>
                </mxCell>
                <mxCell id="1584" value="&lt;b&gt;&lt;font color=&quot;#fcfcfc&quot;&gt;な-ADJな&lt;span style=&quot;&quot;&gt;&amp;nbsp;&lt;/span&gt;&lt;span style=&quot;&quot;&gt;&#9;&lt;span style=&quot;white-space: pre;&quot;&gt;&#9;&lt;/span&gt;&lt;span style=&quot;white-space: pre;&quot;&gt;&#9;&lt;/span&gt;&lt;/span&gt;&lt;span style=&quot;&quot;&gt;&amp;nbsp;&amp;nbsp;&lt;/span&gt;&lt;/font&gt;&lt;/b&gt;&lt;b style=&quot;color: rgb(255, 255, 255); background-color: initial;&quot;&gt;&lt;font color=&quot;#000000&quot;&gt;とき&lt;/font&gt;&lt;/b&gt;&lt;b&gt;&lt;br&gt;&lt;/b&gt;" style="shape=partialRectangle;html=1;whiteSpace=wrap;connectable=0;overflow=hidden;fillColor=#f0a30a;top=0;left=0;bottom=0;right=0;pointerEvents=1;rounded=0;shadow=0;sketch=0;strokeColor=#BD7000;fontColor=#000000;align=right;" parent="1583" vertex="1">
                    <mxGeometry width="150" height="37" as="geometry">
                        <mxRectangle width="150" height="37" as="alternateBounds"/>
                    </mxGeometry>
                </mxCell>
                <mxCell id="1585" value="" style="shape=tableRow;horizontal=0;startSize=0;swimlaneHead=0;swimlaneBody=0;top=0;left=0;bottom=0;right=0;collapsible=0;dropTarget=0;fillColor=none;points=[[0,0.5],[1,0.5]];portConstraint=eastwest;rounded=0;shadow=0;sketch=0;strokeColor=default;" parent="1578" vertex="1">
                    <mxGeometry y="174" width="150" height="36" as="geometry"/>
                </mxCell>
                <mxCell id="1586" value="&lt;b&gt;&lt;font color=&quot;#fcfcfc&quot;&gt;い-ADJい&lt;span style=&quot;&quot;&gt;&amp;nbsp;&lt;/span&gt;&lt;span style=&quot;&quot;&gt;&#9;&lt;span style=&quot;&quot;&gt;&#9;&lt;/span&gt;&lt;/span&gt;&lt;span style=&quot;&quot;&gt;&lt;span style=&quot;&quot;&gt;&amp;nbsp;&lt;span style=&quot;white-space: pre;&quot;&gt;&#9;&lt;/span&gt;&lt;span style=&quot;white-space: pre;&quot;&gt;&#9;&lt;/span&gt;&amp;nbsp;&amp;nbsp;&lt;/span&gt;&lt;/span&gt;&lt;/font&gt;&lt;/b&gt;&lt;b style=&quot;background-color: initial; color: rgb(255, 255, 255);&quot;&gt;&lt;font color=&quot;#000000&quot;&gt;とき&lt;/font&gt;&lt;/b&gt;&lt;b&gt;&lt;br&gt;&lt;/b&gt;" style="shape=partialRectangle;html=1;whiteSpace=wrap;connectable=0;overflow=hidden;fillColor=#fa6800;top=0;left=0;bottom=0;right=0;pointerEvents=1;rounded=0;shadow=0;sketch=0;strokeColor=#C73500;fontColor=#000000;align=right;" parent="1585" vertex="1">
                    <mxGeometry width="150" height="36" as="geometry">
                        <mxRectangle width="150" height="36" as="alternateBounds"/>
                    </mxGeometry>
                </mxCell>
                <mxCell id="1604" value="まだ pas encore" style="shape=table;startSize=30;container=1;collapsible=0;childLayout=tableLayout;rounded=1;fillStyle=auto;fontColor=#FCFCFC;fillColor=#050505;gradientColor=none;fontStyle=1" parent="1" vertex="1">
                    <mxGeometry x="420" y="-1950" width="350" height="220" as="geometry"/>
                </mxCell>
                <mxCell id="1605" value="" style="shape=tableRow;horizontal=0;startSize=0;swimlaneHead=0;swimlaneBody=0;top=0;left=0;bottom=0;right=0;collapsible=0;dropTarget=0;fillColor=none;points=[[0,0.5],[1,0.5]];portConstraint=eastwest;rounded=1;fillStyle=auto;fontColor=#FCFCFC;" parent="1604" vertex="1">
                    <mxGeometry y="30" width="350" height="62" as="geometry"/>
                </mxCell>
                <mxCell id="1606" value="まだ + が-VERBE négatif&amp;nbsp;" style="shape=partialRectangle;html=1;whiteSpace=wrap;connectable=0;overflow=hidden;fillColor=none;top=0;left=0;bottom=0;right=0;pointerEvents=1;rounded=1;fillStyle=auto;fontColor=#FCFCFC;fontStyle=1" parent="1605" vertex="1">
                    <mxGeometry width="180" height="62" as="geometry">
                        <mxRectangle width="180" height="62" as="alternateBounds"/>
                    </mxGeometry>
                </mxCell>
                <mxCell id="1607" value="まだ分かりません。&lt;br&gt;&lt;div&gt;まだありません。&lt;/div&gt;&lt;div&gt;&lt;div&gt;まだいません。&lt;/div&gt;&lt;/div&gt;" style="shape=partialRectangle;html=1;whiteSpace=wrap;connectable=0;overflow=hidden;fillColor=none;top=0;left=0;bottom=0;right=0;pointerEvents=1;rounded=1;fillStyle=auto;fontColor=#FCFCFC;fontStyle=1" parent="1605" vertex="1">
                    <mxGeometry x="180" width="170" height="62" as="geometry">
                        <mxRectangle width="170" height="62" as="alternateBounds"/>
                    </mxGeometry>
                </mxCell>
                <mxCell id="1608" value="" style="shape=tableRow;horizontal=0;startSize=0;swimlaneHead=0;swimlaneBody=0;top=0;left=0;bottom=0;right=0;collapsible=0;dropTarget=0;fillColor=none;points=[[0,0.5],[1,0.5]];portConstraint=eastwest;rounded=1;fillStyle=auto;fontColor=#FCFCFC;" parent="1604" vertex="1">
                    <mxGeometry y="92" width="350" height="66" as="geometry"/>
                </mxCell>
                <mxCell id="1609" value="まだ + を-&lt;span style=&quot;color: rgb(67, 205, 240);&quot;&gt;V-て&lt;/span&gt;&amp;nbsp;Négatif&amp;nbsp;" style="shape=partialRectangle;html=1;whiteSpace=wrap;connectable=0;overflow=hidden;fillColor=none;top=0;left=0;bottom=0;right=0;pointerEvents=1;rounded=1;fillStyle=auto;fontColor=#FCFCFC;fontStyle=1" parent="1608" vertex="1">
                    <mxGeometry width="180" height="66" as="geometry">
                        <mxRectangle width="180" height="66" as="alternateBounds"/>
                    </mxGeometry>
                </mxCell>
                <mxCell id="1610" value="まだ食べていません。" style="shape=partialRectangle;html=1;whiteSpace=wrap;connectable=0;overflow=hidden;fillColor=none;top=0;left=0;bottom=0;right=0;pointerEvents=1;rounded=1;fillStyle=auto;fontColor=#FCFCFC;fontStyle=1" parent="1608" vertex="1">
                    <mxGeometry x="180" width="170" height="66" as="geometry">
                        <mxRectangle width="170" height="66" as="alternateBounds"/>
                    </mxGeometry>
                </mxCell>
                <mxCell id="1611" style="shape=tableRow;horizontal=0;startSize=0;swimlaneHead=0;swimlaneBody=0;top=0;left=0;bottom=0;right=0;collapsible=0;dropTarget=0;fillColor=none;points=[[0,0.5],[1,0.5]];portConstraint=eastwest;rounded=1;fillStyle=auto;fontColor=#FCFCFC;" parent="1604" vertex="1">
                    <mxGeometry y="158" width="350" height="62" as="geometry"/>
                </mxCell>
                <mxCell id="1612" value="&lt;div&gt;EXCEPTION&lt;/div&gt;&lt;div&gt;だ/ですêtre&lt;/div&gt;(/!\ forme positive)" style="shape=partialRectangle;html=1;whiteSpace=wrap;connectable=0;overflow=hidden;fillColor=none;top=0;left=0;bottom=0;right=0;pointerEvents=1;rounded=1;fillStyle=auto;fontColor=#FCFCFC;fontStyle=1" parent="1611" vertex="1">
                    <mxGeometry width="180" height="62" as="geometry">
                        <mxRectangle width="180" height="62" as="alternateBounds"/>
                    </mxGeometry>
                </mxCell>
                <mxCell id="1613" value="いいえ、まだです。" style="shape=partialRectangle;html=1;whiteSpace=wrap;connectable=0;overflow=hidden;fillColor=none;top=0;left=0;bottom=0;right=0;pointerEvents=1;rounded=1;fillStyle=auto;fontColor=#FCFCFC;fontStyle=1" parent="1611" vertex="1">
                    <mxGeometry x="180" width="170" height="62" as="geometry">
                        <mxRectangle width="170" height="62" as="alternateBounds"/>
                    </mxGeometry>
                </mxCell>
                <mxCell id="1629" value="Demander un conseil" style="swimlane;fontStyle=1;align=center;verticalAlign=top;childLayout=stackLayout;horizontal=1;startSize=26;horizontalStack=0;resizeParent=1;resizeLast=0;collapsible=1;marginBottom=0;rounded=0;shadow=0;strokeWidth=1;" parent="1" vertex="1">
                    <mxGeometry x="-1760" y="-1860" width="180" height="78" as="geometry">
                        <mxRectangle x="-340" y="200" width="160" height="26" as="alternateBounds"/>
                    </mxGeometry>
                </mxCell>
                <mxCell id="1630" value="V-う +と いいですか。" style="text;align=center;verticalAlign=top;spacingLeft=4;spacingRight=4;overflow=hidden;rotatable=0;points=[[0,0.5],[1,0.5]];portConstraint=eastwest;rounded=0;shadow=0;html=0;fontColor=#FFFFFF;fontStyle=1" parent="1629" vertex="1">
                    <mxGeometry y="26" width="180" height="26" as="geometry"/>
                </mxCell>
                <mxCell id="1631" value="V-た + ら いいですか。" style="text;align=center;verticalAlign=top;spacingLeft=4;spacingRight=4;overflow=hidden;rotatable=0;points=[[0,0.5],[1,0.5]];portConstraint=eastwest;rounded=0;shadow=0;html=0;fontColor=#FFFFFF;fontStyle=1" parent="1629" vertex="1">
                    <mxGeometry y="52" width="180" height="26" as="geometry"/>
                </mxCell>
                <mxCell id="1632" value=" A FICHER" style="shape=table;startSize=30;container=1;collapsible=0;childLayout=tableLayout;rounded=1;fillStyle=auto;fontColor=#FF0080;fillColor=#050505;gradientColor=none;" parent="1" vertex="1">
                    <mxGeometry x="-688" y="-910" width="410" height="590" as="geometry"/>
                </mxCell>
                <mxCell id="1633" value="" style="shape=tableRow;horizontal=0;startSize=0;swimlaneHead=0;swimlaneBody=0;top=0;left=0;bottom=0;right=0;collapsible=0;dropTarget=0;fillColor=none;points=[[0,0.5],[1,0.5]];portConstraint=eastwest;rounded=1;fillStyle=auto;fontColor=#FF0080;" parent="1632" vertex="1">
                    <mxGeometry y="30" width="410" height="40" as="geometry"/>
                </mxCell>
                <mxCell id="1634" value="&lt;span style=&quot;color: rgb(240, 240, 240);&quot;&gt;ご + V-3ème groupe sans する + ください&lt;/span&gt;" style="shape=partialRectangle;html=1;whiteSpace=wrap;connectable=0;overflow=hidden;fillColor=none;top=0;left=0;bottom=0;right=0;pointerEvents=1;rounded=1;fillStyle=auto;fontColor=#FF0080;" parent="1633" vertex="1">
                    <mxGeometry width="137" height="40" as="geometry">
                        <mxRectangle width="137" height="40" as="alternateBounds"/>
                    </mxGeometry>
                </mxCell>
                <mxCell id="1635" value="&lt;span style=&quot;color: rgb(240, 240, 240);&quot;&gt;Faire qqchose (très poli)&lt;/span&gt;" style="shape=partialRectangle;html=1;whiteSpace=wrap;connectable=0;overflow=hidden;fillColor=none;top=0;left=0;bottom=0;right=0;pointerEvents=1;rounded=1;fillStyle=auto;fontColor=#FF0080;" parent="1633" vertex="1">
                    <mxGeometry x="137" width="136" height="40" as="geometry">
                        <mxRectangle width="136" height="40" as="alternateBounds"/>
                    </mxGeometry>
                </mxCell>
                <mxCell id="1636" value="" style="shape=partialRectangle;html=1;whiteSpace=wrap;connectable=0;overflow=hidden;fillColor=none;top=0;left=0;bottom=0;right=0;pointerEvents=1;rounded=1;fillStyle=auto;fontColor=#FF0080;" parent="1633" vertex="1">
                    <mxGeometry x="273" width="137" height="40" as="geometry">
                        <mxRectangle width="137" height="40" as="alternateBounds"/>
                    </mxGeometry>
                </mxCell>
                <mxCell id="1637" value="" style="shape=tableRow;horizontal=0;startSize=0;swimlaneHead=0;swimlaneBody=0;top=0;left=0;bottom=0;right=0;collapsible=0;dropTarget=0;fillColor=none;points=[[0,0.5],[1,0.5]];portConstraint=eastwest;rounded=1;fillStyle=auto;fontColor=#FF0080;" parent="1632" vertex="1">
                    <mxGeometry y="70" width="410" height="40" as="geometry"/>
                </mxCell>
                <mxCell id="1638" value="&lt;span style=&quot;color: rgb(240, 240, 240);&quot;&gt;しか V-négatif.&lt;/span&gt;" style="shape=partialRectangle;html=1;whiteSpace=wrap;connectable=0;overflow=hidden;fillColor=none;top=0;left=0;bottom=0;right=0;pointerEvents=1;rounded=1;fillStyle=auto;fontColor=#FF0080;" parent="1637" vertex="1">
                    <mxGeometry width="137" height="40" as="geometry">
                        <mxRectangle width="137" height="40" as="alternateBounds"/>
                    </mxGeometry>
                </mxCell>
                <mxCell id="1639" value="&lt;span style=&quot;color: rgb(240, 240, 240);&quot;&gt;seulement&lt;/span&gt;" style="shape=partialRectangle;html=1;whiteSpace=wrap;connectable=0;overflow=hidden;fillColor=none;top=0;left=0;bottom=0;right=0;pointerEvents=1;rounded=1;fillStyle=auto;fontColor=#FF0080;" parent="1637" vertex="1">
                    <mxGeometry x="137" width="136" height="40" as="geometry">
                        <mxRectangle width="136" height="40" as="alternateBounds"/>
                    </mxGeometry>
                </mxCell>
                <mxCell id="1640" value="" style="shape=partialRectangle;html=1;whiteSpace=wrap;connectable=0;overflow=hidden;fillColor=none;top=0;left=0;bottom=0;right=0;pointerEvents=1;rounded=1;fillStyle=auto;fontColor=#FF0080;" parent="1637" vertex="1">
                    <mxGeometry x="273" width="137" height="40" as="geometry">
                        <mxRectangle width="137" height="40" as="alternateBounds"/>
                    </mxGeometry>
                </mxCell>
                <mxCell id="1641" value="" style="shape=tableRow;horizontal=0;startSize=0;swimlaneHead=0;swimlaneBody=0;top=0;left=0;bottom=0;right=0;collapsible=0;dropTarget=0;fillColor=none;points=[[0,0.5],[1,0.5]];portConstraint=eastwest;rounded=1;fillStyle=auto;fontColor=#FF0080;" parent="1632" vertex="1">
                    <mxGeometry y="110" width="410" height="40" as="geometry"/>
                </mxCell>
                <mxCell id="1642" value="" style="shape=partialRectangle;html=1;whiteSpace=wrap;connectable=0;overflow=hidden;fillColor=none;top=0;left=0;bottom=0;right=0;pointerEvents=1;rounded=1;fillStyle=auto;fontColor=#FF0080;" parent="1641" vertex="1">
                    <mxGeometry width="137" height="40" as="geometry">
                        <mxRectangle width="137" height="40" as="alternateBounds"/>
                    </mxGeometry>
                </mxCell>
                <mxCell id="1643" value="" style="shape=partialRectangle;html=1;whiteSpace=wrap;connectable=0;overflow=hidden;fillColor=none;top=0;left=0;bottom=0;right=0;pointerEvents=1;rounded=1;fillStyle=auto;fontColor=#FF0080;" parent="1641" vertex="1">
                    <mxGeometry x="137" width="136" height="40" as="geometry">
                        <mxRectangle width="136" height="40" as="alternateBounds"/>
                    </mxGeometry>
                </mxCell>
                <mxCell id="1644" value="" style="shape=partialRectangle;html=1;whiteSpace=wrap;connectable=0;overflow=hidden;fillColor=none;top=0;left=0;bottom=0;right=0;pointerEvents=1;rounded=1;fillStyle=auto;fontColor=#FF0080;" parent="1641" vertex="1">
                    <mxGeometry x="273" width="137" height="40" as="geometry">
                        <mxRectangle width="137" height="40" as="alternateBounds"/>
                    </mxGeometry>
                </mxCell>
                <mxCell id="1645" value="" style="shape=tableRow;horizontal=0;startSize=0;swimlaneHead=0;swimlaneBody=0;top=0;left=0;bottom=0;right=0;collapsible=0;dropTarget=0;fillColor=none;points=[[0,0.5],[1,0.5]];portConstraint=eastwest;rounded=1;fillStyle=auto;fontColor=#FF0080;" parent="1632" vertex="1">
                    <mxGeometry y="150" width="410" height="40" as="geometry"/>
                </mxCell>
                <mxCell id="1646" value="" style="shape=partialRectangle;html=1;whiteSpace=wrap;connectable=0;overflow=hidden;fillColor=none;top=0;left=0;bottom=0;right=0;pointerEvents=1;rounded=1;fillStyle=auto;fontColor=#FF0080;" parent="1645" vertex="1">
                    <mxGeometry width="137" height="40" as="geometry">
                        <mxRectangle width="137" height="40" as="alternateBounds"/>
                    </mxGeometry>
                </mxCell>
                <mxCell id="1647" value="" style="shape=partialRectangle;html=1;whiteSpace=wrap;connectable=0;overflow=hidden;fillColor=none;top=0;left=0;bottom=0;right=0;pointerEvents=1;rounded=1;fillStyle=auto;fontColor=#FF0080;" parent="1645" vertex="1">
                    <mxGeometry x="137" width="136" height="40" as="geometry">
                        <mxRectangle width="136" height="40" as="alternateBounds"/>
                    </mxGeometry>
                </mxCell>
                <mxCell id="1648" value="" style="shape=partialRectangle;html=1;whiteSpace=wrap;connectable=0;overflow=hidden;fillColor=none;top=0;left=0;bottom=0;right=0;pointerEvents=1;rounded=1;fillStyle=auto;fontColor=#FF0080;" parent="1645" vertex="1">
                    <mxGeometry x="273" width="137" height="40" as="geometry">
                        <mxRectangle width="137" height="40" as="alternateBounds"/>
                    </mxGeometry>
                </mxCell>
                <mxCell id="1649" value="" style="shape=tableRow;horizontal=0;startSize=0;swimlaneHead=0;swimlaneBody=0;top=0;left=0;bottom=0;right=0;collapsible=0;dropTarget=0;fillColor=none;points=[[0,0.5],[1,0.5]];portConstraint=eastwest;rounded=1;fillStyle=auto;fontColor=#FF0080;" parent="1632" vertex="1">
                    <mxGeometry y="190" width="410" height="40" as="geometry"/>
                </mxCell>
                <mxCell id="1650" value="" style="shape=partialRectangle;html=1;whiteSpace=wrap;connectable=0;overflow=hidden;fillColor=none;top=0;left=0;bottom=0;right=0;pointerEvents=1;rounded=1;fillStyle=auto;fontColor=#FF0080;" parent="1649" vertex="1">
                    <mxGeometry width="137" height="40" as="geometry">
                        <mxRectangle width="137" height="40" as="alternateBounds"/>
                    </mxGeometry>
                </mxCell>
                <mxCell id="1651" value="" style="shape=partialRectangle;html=1;whiteSpace=wrap;connectable=0;overflow=hidden;fillColor=none;top=0;left=0;bottom=0;right=0;pointerEvents=1;rounded=1;fillStyle=auto;fontColor=#FF0080;" parent="1649" vertex="1">
                    <mxGeometry x="137" width="136" height="40" as="geometry">
                        <mxRectangle width="136" height="40" as="alternateBounds"/>
                    </mxGeometry>
                </mxCell>
                <mxCell id="1652" value="" style="shape=partialRectangle;html=1;whiteSpace=wrap;connectable=0;overflow=hidden;fillColor=none;top=0;left=0;bottom=0;right=0;pointerEvents=1;rounded=1;fillStyle=auto;fontColor=#FF0080;" parent="1649" vertex="1">
                    <mxGeometry x="273" width="137" height="40" as="geometry">
                        <mxRectangle width="137" height="40" as="alternateBounds"/>
                    </mxGeometry>
                </mxCell>
                <mxCell id="1653" value="" style="shape=tableRow;horizontal=0;startSize=0;swimlaneHead=0;swimlaneBody=0;top=0;left=0;bottom=0;right=0;collapsible=0;dropTarget=0;fillColor=none;points=[[0,0.5],[1,0.5]];portConstraint=eastwest;rounded=1;fillStyle=auto;fontColor=#FF0080;" parent="1632" vertex="1">
                    <mxGeometry y="230" width="410" height="40" as="geometry"/>
                </mxCell>
                <mxCell id="1654" value="" style="shape=partialRectangle;html=1;whiteSpace=wrap;connectable=0;overflow=hidden;fillColor=none;top=0;left=0;bottom=0;right=0;pointerEvents=1;rounded=1;fillStyle=auto;fontColor=#FF0080;" parent="1653" vertex="1">
                    <mxGeometry width="137" height="40" as="geometry">
                        <mxRectangle width="137" height="40" as="alternateBounds"/>
                    </mxGeometry>
                </mxCell>
                <mxCell id="1655" value="" style="shape=partialRectangle;html=1;whiteSpace=wrap;connectable=0;overflow=hidden;fillColor=none;top=0;left=0;bottom=0;right=0;pointerEvents=1;rounded=1;fillStyle=auto;fontColor=#FF0080;" parent="1653" vertex="1">
                    <mxGeometry x="137" width="136" height="40" as="geometry">
                        <mxRectangle width="136" height="40" as="alternateBounds"/>
                    </mxGeometry>
                </mxCell>
                <mxCell id="1656" value="" style="shape=partialRectangle;html=1;whiteSpace=wrap;connectable=0;overflow=hidden;fillColor=none;top=0;left=0;bottom=0;right=0;pointerEvents=1;rounded=1;fillStyle=auto;fontColor=#FF0080;" parent="1653" vertex="1">
                    <mxGeometry x="273" width="137" height="40" as="geometry">
                        <mxRectangle width="137" height="40" as="alternateBounds"/>
                    </mxGeometry>
                </mxCell>
                <mxCell id="1657" value="" style="shape=tableRow;horizontal=0;startSize=0;swimlaneHead=0;swimlaneBody=0;top=0;left=0;bottom=0;right=0;collapsible=0;dropTarget=0;fillColor=none;points=[[0,0.5],[1,0.5]];portConstraint=eastwest;rounded=1;fillStyle=auto;fontColor=#FF0080;" parent="1632" vertex="1">
                    <mxGeometry y="270" width="410" height="40" as="geometry"/>
                </mxCell>
                <mxCell id="1658" value="" style="shape=partialRectangle;html=1;whiteSpace=wrap;connectable=0;overflow=hidden;fillColor=none;top=0;left=0;bottom=0;right=0;pointerEvents=1;rounded=1;fillStyle=auto;fontColor=#FF0080;" parent="1657" vertex="1">
                    <mxGeometry width="137" height="40" as="geometry">
                        <mxRectangle width="137" height="40" as="alternateBounds"/>
                    </mxGeometry>
                </mxCell>
                <mxCell id="1659" value="" style="shape=partialRectangle;html=1;whiteSpace=wrap;connectable=0;overflow=hidden;fillColor=none;top=0;left=0;bottom=0;right=0;pointerEvents=1;rounded=1;fillStyle=auto;fontColor=#FF0080;" parent="1657" vertex="1">
                    <mxGeometry x="137" width="136" height="40" as="geometry">
                        <mxRectangle width="136" height="40" as="alternateBounds"/>
                    </mxGeometry>
                </mxCell>
                <mxCell id="1660" value="" style="shape=partialRectangle;html=1;whiteSpace=wrap;connectable=0;overflow=hidden;fillColor=none;top=0;left=0;bottom=0;right=0;pointerEvents=1;rounded=1;fillStyle=auto;fontColor=#FF0080;" parent="1657" vertex="1">
                    <mxGeometry x="273" width="137" height="40" as="geometry">
                        <mxRectangle width="137" height="40" as="alternateBounds"/>
                    </mxGeometry>
                </mxCell>
                <mxCell id="1661" value="" style="shape=tableRow;horizontal=0;startSize=0;swimlaneHead=0;swimlaneBody=0;top=0;left=0;bottom=0;right=0;collapsible=0;dropTarget=0;fillColor=none;points=[[0,0.5],[1,0.5]];portConstraint=eastwest;rounded=1;fillStyle=auto;fontColor=#FF0080;" parent="1632" vertex="1">
                    <mxGeometry y="310" width="410" height="40" as="geometry"/>
                </mxCell>
                <mxCell id="1662" value="" style="shape=partialRectangle;html=1;whiteSpace=wrap;connectable=0;overflow=hidden;fillColor=none;top=0;left=0;bottom=0;right=0;pointerEvents=1;rounded=1;fillStyle=auto;fontColor=#FF0080;" parent="1661" vertex="1">
                    <mxGeometry width="137" height="40" as="geometry">
                        <mxRectangle width="137" height="40" as="alternateBounds"/>
                    </mxGeometry>
                </mxCell>
                <mxCell id="1663" value="" style="shape=partialRectangle;html=1;whiteSpace=wrap;connectable=0;overflow=hidden;fillColor=none;top=0;left=0;bottom=0;right=0;pointerEvents=1;rounded=1;fillStyle=auto;fontColor=#FF0080;" parent="1661" vertex="1">
                    <mxGeometry x="137" width="136" height="40" as="geometry">
                        <mxRectangle width="136" height="40" as="alternateBounds"/>
                    </mxGeometry>
                </mxCell>
                <mxCell id="1664" value="" style="shape=partialRectangle;html=1;whiteSpace=wrap;connectable=0;overflow=hidden;fillColor=none;top=0;left=0;bottom=0;right=0;pointerEvents=1;rounded=1;fillStyle=auto;fontColor=#FF0080;" parent="1661" vertex="1">
                    <mxGeometry x="273" width="137" height="40" as="geometry">
                        <mxRectangle width="137" height="40" as="alternateBounds"/>
                    </mxGeometry>
                </mxCell>
                <mxCell id="1665" value="" style="shape=tableRow;horizontal=0;startSize=0;swimlaneHead=0;swimlaneBody=0;top=0;left=0;bottom=0;right=0;collapsible=0;dropTarget=0;fillColor=none;points=[[0,0.5],[1,0.5]];portConstraint=eastwest;rounded=1;fillStyle=auto;fontColor=#FF0080;" parent="1632" vertex="1">
                    <mxGeometry y="350" width="410" height="40" as="geometry"/>
                </mxCell>
                <mxCell id="1666" value="" style="shape=partialRectangle;html=1;whiteSpace=wrap;connectable=0;overflow=hidden;fillColor=none;top=0;left=0;bottom=0;right=0;pointerEvents=1;rounded=1;fillStyle=auto;fontColor=#FF0080;" parent="1665" vertex="1">
                    <mxGeometry width="137" height="40" as="geometry">
                        <mxRectangle width="137" height="40" as="alternateBounds"/>
                    </mxGeometry>
                </mxCell>
                <mxCell id="1667" value="" style="shape=partialRectangle;html=1;whiteSpace=wrap;connectable=0;overflow=hidden;fillColor=none;top=0;left=0;bottom=0;right=0;pointerEvents=1;rounded=1;fillStyle=auto;fontColor=#FF0080;" parent="1665" vertex="1">
                    <mxGeometry x="137" width="136" height="40" as="geometry">
                        <mxRectangle width="136" height="40" as="alternateBounds"/>
                    </mxGeometry>
                </mxCell>
                <mxCell id="1668" value="" style="shape=partialRectangle;html=1;whiteSpace=wrap;connectable=0;overflow=hidden;fillColor=none;top=0;left=0;bottom=0;right=0;pointerEvents=1;rounded=1;fillStyle=auto;fontColor=#FF0080;" parent="1665" vertex="1">
                    <mxGeometry x="273" width="137" height="40" as="geometry">
                        <mxRectangle width="137" height="40" as="alternateBounds"/>
                    </mxGeometry>
                </mxCell>
                <mxCell id="1669" value="" style="shape=tableRow;horizontal=0;startSize=0;swimlaneHead=0;swimlaneBody=0;top=0;left=0;bottom=0;right=0;collapsible=0;dropTarget=0;fillColor=none;points=[[0,0.5],[1,0.5]];portConstraint=eastwest;rounded=1;fillStyle=auto;fontColor=#FF0080;" parent="1632" vertex="1">
                    <mxGeometry y="390" width="410" height="40" as="geometry"/>
                </mxCell>
                <mxCell id="1670" value="" style="shape=partialRectangle;html=1;whiteSpace=wrap;connectable=0;overflow=hidden;fillColor=none;top=0;left=0;bottom=0;right=0;pointerEvents=1;rounded=1;fillStyle=auto;fontColor=#FF0080;" parent="1669" vertex="1">
                    <mxGeometry width="137" height="40" as="geometry">
                        <mxRectangle width="137" height="40" as="alternateBounds"/>
                    </mxGeometry>
                </mxCell>
                <mxCell id="1671" value="" style="shape=partialRectangle;html=1;whiteSpace=wrap;connectable=0;overflow=hidden;fillColor=none;top=0;left=0;bottom=0;right=0;pointerEvents=1;rounded=1;fillStyle=auto;fontColor=#FF0080;" parent="1669" vertex="1">
                    <mxGeometry x="137" width="136" height="40" as="geometry">
                        <mxRectangle width="136" height="40" as="alternateBounds"/>
                    </mxGeometry>
                </mxCell>
                <mxCell id="1672" value="" style="shape=partialRectangle;html=1;whiteSpace=wrap;connectable=0;overflow=hidden;fillColor=none;top=0;left=0;bottom=0;right=0;pointerEvents=1;rounded=1;fillStyle=auto;fontColor=#FF0080;" parent="1669" vertex="1">
                    <mxGeometry x="273" width="137" height="40" as="geometry">
                        <mxRectangle width="137" height="40" as="alternateBounds"/>
                    </mxGeometry>
                </mxCell>
                <mxCell id="1673" value="" style="shape=tableRow;horizontal=0;startSize=0;swimlaneHead=0;swimlaneBody=0;top=0;left=0;bottom=0;right=0;collapsible=0;dropTarget=0;fillColor=none;points=[[0,0.5],[1,0.5]];portConstraint=eastwest;rounded=1;fillStyle=auto;fontColor=#FF0080;" parent="1632" vertex="1">
                    <mxGeometry y="430" width="410" height="40" as="geometry"/>
                </mxCell>
                <mxCell id="1674" value="" style="shape=partialRectangle;html=1;whiteSpace=wrap;connectable=0;overflow=hidden;fillColor=none;top=0;left=0;bottom=0;right=0;pointerEvents=1;rounded=1;fillStyle=auto;fontColor=#FF0080;" parent="1673" vertex="1">
                    <mxGeometry width="137" height="40" as="geometry">
                        <mxRectangle width="137" height="40" as="alternateBounds"/>
                    </mxGeometry>
                </mxCell>
                <mxCell id="1675" value="" style="shape=partialRectangle;html=1;whiteSpace=wrap;connectable=0;overflow=hidden;fillColor=none;top=0;left=0;bottom=0;right=0;pointerEvents=1;rounded=1;fillStyle=auto;fontColor=#FF0080;" parent="1673" vertex="1">
                    <mxGeometry x="137" width="136" height="40" as="geometry">
                        <mxRectangle width="136" height="40" as="alternateBounds"/>
                    </mxGeometry>
                </mxCell>
                <mxCell id="1676" value="" style="shape=partialRectangle;html=1;whiteSpace=wrap;connectable=0;overflow=hidden;fillColor=none;top=0;left=0;bottom=0;right=0;pointerEvents=1;rounded=1;fillStyle=auto;fontColor=#FF0080;" parent="1673" vertex="1">
                    <mxGeometry x="273" width="137" height="40" as="geometry">
                        <mxRectangle width="137" height="40" as="alternateBounds"/>
                    </mxGeometry>
                </mxCell>
                <mxCell id="1677" value="" style="shape=tableRow;horizontal=0;startSize=0;swimlaneHead=0;swimlaneBody=0;top=0;left=0;bottom=0;right=0;collapsible=0;dropTarget=0;fillColor=none;points=[[0,0.5],[1,0.5]];portConstraint=eastwest;rounded=1;fillStyle=auto;fontColor=#FF0080;" parent="1632" vertex="1">
                    <mxGeometry y="470" width="410" height="40" as="geometry"/>
                </mxCell>
                <mxCell id="1678" value="" style="shape=partialRectangle;html=1;whiteSpace=wrap;connectable=0;overflow=hidden;fillColor=none;top=0;left=0;bottom=0;right=0;pointerEvents=1;rounded=1;fillStyle=auto;fontColor=#FF0080;" parent="1677" vertex="1">
                    <mxGeometry width="137" height="40" as="geometry">
                        <mxRectangle width="137" height="40" as="alternateBounds"/>
                    </mxGeometry>
                </mxCell>
                <mxCell id="1679" value="" style="shape=partialRectangle;html=1;whiteSpace=wrap;connectable=0;overflow=hidden;fillColor=none;top=0;left=0;bottom=0;right=0;pointerEvents=1;rounded=1;fillStyle=auto;fontColor=#FF0080;" parent="1677" vertex="1">
                    <mxGeometry x="137" width="136" height="40" as="geometry">
                        <mxRectangle width="136" height="40" as="alternateBounds"/>
                    </mxGeometry>
                </mxCell>
                <mxCell id="1680" value="" style="shape=partialRectangle;html=1;whiteSpace=wrap;connectable=0;overflow=hidden;fillColor=none;top=0;left=0;bottom=0;right=0;pointerEvents=1;rounded=1;fillStyle=auto;fontColor=#FF0080;" parent="1677" vertex="1">
                    <mxGeometry x="273" width="137" height="40" as="geometry">
                        <mxRectangle width="137" height="40" as="alternateBounds"/>
                    </mxGeometry>
                </mxCell>
                <mxCell id="1681" value="" style="shape=tableRow;horizontal=0;startSize=0;swimlaneHead=0;swimlaneBody=0;top=0;left=0;bottom=0;right=0;collapsible=0;dropTarget=0;fillColor=none;points=[[0,0.5],[1,0.5]];portConstraint=eastwest;rounded=1;fillStyle=auto;fontColor=#FF0080;" parent="1632" vertex="1">
                    <mxGeometry y="510" width="410" height="40" as="geometry"/>
                </mxCell>
                <mxCell id="1682" value="" style="shape=partialRectangle;html=1;whiteSpace=wrap;connectable=0;overflow=hidden;fillColor=none;top=0;left=0;bottom=0;right=0;pointerEvents=1;rounded=1;fillStyle=auto;fontColor=#FF0080;" parent="1681" vertex="1">
                    <mxGeometry width="137" height="40" as="geometry">
                        <mxRectangle width="137" height="40" as="alternateBounds"/>
                    </mxGeometry>
                </mxCell>
                <mxCell id="1683" value="" style="shape=partialRectangle;html=1;whiteSpace=wrap;connectable=0;overflow=hidden;fillColor=none;top=0;left=0;bottom=0;right=0;pointerEvents=1;rounded=1;fillStyle=auto;fontColor=#FF0080;" parent="1681" vertex="1">
                    <mxGeometry x="137" width="136" height="40" as="geometry">
                        <mxRectangle width="136" height="40" as="alternateBounds"/>
                    </mxGeometry>
                </mxCell>
                <mxCell id="1684" value="" style="shape=partialRectangle;html=1;whiteSpace=wrap;connectable=0;overflow=hidden;fillColor=none;top=0;left=0;bottom=0;right=0;pointerEvents=1;rounded=1;fillStyle=auto;fontColor=#FF0080;" parent="1681" vertex="1">
                    <mxGeometry x="273" width="137" height="40" as="geometry">
                        <mxRectangle width="137" height="40" as="alternateBounds"/>
                    </mxGeometry>
                </mxCell>
                <mxCell id="1685" value="" style="shape=tableRow;horizontal=0;startSize=0;swimlaneHead=0;swimlaneBody=0;top=0;left=0;bottom=0;right=0;collapsible=0;dropTarget=0;fillColor=none;points=[[0,0.5],[1,0.5]];portConstraint=eastwest;rounded=1;fillStyle=auto;fontColor=#FF0080;" parent="1632" vertex="1">
                    <mxGeometry y="550" width="410" height="40" as="geometry"/>
                </mxCell>
                <mxCell id="1686" value="" style="shape=partialRectangle;html=1;whiteSpace=wrap;connectable=0;overflow=hidden;fillColor=none;top=0;left=0;bottom=0;right=0;pointerEvents=1;rounded=1;fillStyle=auto;fontColor=#FF0080;" parent="1685" vertex="1">
                    <mxGeometry width="137" height="40" as="geometry">
                        <mxRectangle width="137" height="40" as="alternateBounds"/>
                    </mxGeometry>
                </mxCell>
                <mxCell id="1687" value="" style="shape=partialRectangle;html=1;whiteSpace=wrap;connectable=0;overflow=hidden;fillColor=none;top=0;left=0;bottom=0;right=0;pointerEvents=1;rounded=1;fillStyle=auto;fontColor=#FF0080;" parent="1685" vertex="1">
                    <mxGeometry x="137" width="136" height="40" as="geometry">
                        <mxRectangle width="136" height="40" as="alternateBounds"/>
                    </mxGeometry>
                </mxCell>
                <mxCell id="1688" value="" style="shape=partialRectangle;html=1;whiteSpace=wrap;connectable=0;overflow=hidden;fillColor=none;top=0;left=0;bottom=0;right=0;pointerEvents=1;rounded=1;fillStyle=auto;fontColor=#FF0080;" parent="1685" vertex="1">
                    <mxGeometry x="273" width="137" height="40" as="geometry">
                        <mxRectangle width="137" height="40" as="alternateBounds"/>
                    </mxGeometry>
                </mxCell>
                <mxCell id="1689" value="Début de phrase" style="shape=table;startSize=30;container=1;collapsible=0;childLayout=tableLayout;rounded=1;fillStyle=auto;fontColor=#FCFCFC;fillColor=#050505;gradientColor=none;fontStyle=1" parent="1" vertex="1">
                    <mxGeometry x="-75" y="-2210" width="390" height="170" as="geometry"/>
                </mxCell>
                <mxCell id="1694" value="" style="shape=tableRow;horizontal=0;startSize=0;swimlaneHead=0;swimlaneBody=0;top=0;left=0;bottom=0;right=0;collapsible=0;dropTarget=0;fillColor=none;points=[[0,0.5],[1,0.5]];portConstraint=eastwest;rounded=1;fillStyle=auto;fontColor=#FF0080;" parent="1689" vertex="1">
                    <mxGeometry y="30" width="390" height="68" as="geometry"/>
                </mxCell>
                <mxCell id="1695" value="&lt;span style=&quot;color: rgb(240, 240, 240);&quot;&gt;NOMの&amp;nbsp;&lt;span style=&quot;white-space: pre;&quot;&gt;&#9;&lt;/span&gt;&lt;span style=&quot;white-space: pre;&quot;&gt;&#9;&lt;/span&gt;&lt;/span&gt;&lt;span style=&quot;color: rgb(240, 240, 240);&quot;&gt;前に、&lt;/span&gt;&lt;br style=&quot;color: rgb(240, 240, 240);&quot;&gt;&lt;span style=&quot;color: rgb(240, 240, 240);&quot;&gt;V-う&lt;span style=&quot;white-space: pre;&quot;&gt;&#9;&lt;/span&gt;&lt;span style=&quot;white-space: pre;&quot;&gt;&#9;&lt;/span&gt;&lt;span style=&quot;white-space: pre;&quot;&gt;&#9;&lt;/span&gt;&lt;/span&gt;&lt;span style=&quot;color: rgb(240, 240, 240);&quot;&gt;前に、&lt;/span&gt;" style="shape=partialRectangle;html=1;whiteSpace=wrap;connectable=0;overflow=hidden;fillColor=none;top=0;left=0;bottom=0;right=0;pointerEvents=1;rounded=1;fillStyle=auto;fontColor=#FF0080;fontStyle=1" parent="1694" vertex="1">
                    <mxGeometry width="130" height="68" as="geometry">
                        <mxRectangle width="130" height="68" as="alternateBounds"/>
                    </mxGeometry>
                </mxCell>
                <mxCell id="1696" value="&lt;font color=&quot;#fcfcfc&quot;&gt;&lt;b&gt;Avant&lt;/b&gt;&lt;/font&gt;" style="shape=partialRectangle;html=1;whiteSpace=wrap;connectable=0;overflow=hidden;fillColor=none;top=0;left=0;bottom=0;right=0;pointerEvents=1;rounded=1;fillStyle=auto;fontColor=#FF0080;" parent="1694" vertex="1">
                    <mxGeometry x="130" width="130" height="68" as="geometry">
                        <mxRectangle width="130" height="68" as="alternateBounds"/>
                    </mxGeometry>
                </mxCell>
                <mxCell id="1697" value="" style="shape=partialRectangle;html=1;whiteSpace=wrap;connectable=0;overflow=hidden;fillColor=none;top=0;left=0;bottom=0;right=0;pointerEvents=1;rounded=1;fillStyle=auto;fontColor=#FF0080;" parent="1694" vertex="1">
                    <mxGeometry x="260" width="130" height="68" as="geometry">
                        <mxRectangle width="130" height="68" as="alternateBounds"/>
                    </mxGeometry>
                </mxCell>
                <mxCell id="1690" value="" style="shape=tableRow;horizontal=0;startSize=0;swimlaneHead=0;swimlaneBody=0;top=0;left=0;bottom=0;right=0;collapsible=0;dropTarget=0;fillColor=none;points=[[0,0.5],[1,0.5]];portConstraint=eastwest;rounded=1;fillStyle=auto;fontColor=#FF0080;" parent="1689" vertex="1">
                    <mxGeometry y="98" width="390" height="72" as="geometry"/>
                </mxCell>
                <mxCell id="1691" value="&lt;b&gt;&lt;span style=&quot;color: rgb(240, 240, 240);&quot;&gt;NOMの&amp;nbsp;&lt;span style=&quot;white-space: pre;&quot;&gt;&#9;&lt;/span&gt;&lt;span style=&quot;white-space: pre;&quot;&gt;&#9;&lt;/span&gt;&lt;/span&gt;&lt;span style=&quot;color: rgb(240, 240, 240);&quot;&gt;あとで&lt;/span&gt;&lt;br style=&quot;color: rgb(240, 240, 240);&quot;&gt;&lt;span style=&quot;color: rgb(240, 240, 240);&quot;&gt;V-た&amp;nbsp;&amp;nbsp;&lt;span style=&quot;white-space: pre;&quot;&gt;&#9;&lt;/span&gt;&lt;span style=&quot;white-space: pre;&quot;&gt;&#9;&lt;/span&gt;&lt;/span&gt;&lt;span style=&quot;color: rgb(240, 240, 240);&quot;&gt;あとで&lt;/span&gt;&lt;/b&gt;" style="shape=partialRectangle;html=1;whiteSpace=wrap;connectable=0;overflow=hidden;fillColor=none;top=0;left=0;bottom=0;right=0;pointerEvents=1;rounded=1;fillStyle=auto;fontColor=#FF0080;" parent="1690" vertex="1">
                    <mxGeometry width="130" height="72" as="geometry">
                        <mxRectangle width="130" height="72" as="alternateBounds"/>
                    </mxGeometry>
                </mxCell>
                <mxCell id="1692" value="&lt;font color=&quot;#fcfcfc&quot;&gt;Après&lt;/font&gt;" style="shape=partialRectangle;html=1;whiteSpace=wrap;connectable=0;overflow=hidden;fillColor=none;top=0;left=0;bottom=0;right=0;pointerEvents=1;rounded=1;fillStyle=auto;fontColor=#FF0080;fontStyle=1" parent="1690" vertex="1">
                    <mxGeometry x="130" width="130" height="72" as="geometry">
                        <mxRectangle width="130" height="72" as="alternateBounds"/>
                    </mxGeometry>
                </mxCell>
                <mxCell id="1693" value="" style="shape=partialRectangle;html=1;whiteSpace=wrap;connectable=0;overflow=hidden;fillColor=none;top=0;left=0;bottom=0;right=0;pointerEvents=1;rounded=1;fillStyle=auto;fontColor=#FF0080;" parent="1690" vertex="1">
                    <mxGeometry x="260" width="130" height="72" as="geometry">
                        <mxRectangle width="130" height="72" as="alternateBounds"/>
                    </mxGeometry>
                </mxCell>
                <mxCell id="1700" value="QUESTIONS" style="ellipse;html=1;fillColor=#6a00ff;strokeColor=#3700CC;fontStyle=1;labelBackgroundColor=none;labelBorderColor=none;whiteSpace=wrap;shadow=0;gradientDirection=west;strokeWidth=5;fontColor=#ffffff;" vertex="1" parent="1">
                    <mxGeometry x="1101" y="-2320" width="280" height="80" as="geometry"/>
                </mxCell>
                <mxCell id="1701" value="CATEGORIE(の中)で?がいちばんADJですか。" style="whiteSpace=wrap;html=1;" vertex="1" parent="1">
                    <mxGeometry x="870" y="-2195" width="271" height="40" as="geometry"/>
                </mxCell>
            </root>
        </mxGraphModel>
    </diagram>
</mxfile>